<svg width="16" height="14" viewBox="0 0 16 14" fill="none" xmlns="http://www.w3.org/2000/svg">
<path d="M0.288574 7.00684C0.288574 6.79655 0.374349 6.61117 0.545898 6.45068L6.04102 0.963867C6.12956 0.875326 6.2181 0.811686 6.30664 0.772949C6.40072 0.734212 6.49756 0.714844 6.59717 0.714844C6.80192 0.714844 6.97347 0.784017 7.11182 0.922363C7.2557 1.05518 7.32764 1.22396 7.32764 1.42871C7.32764 1.52832 7.30827 1.62516 7.26953 1.71924C7.23633 1.80778 7.18652 1.88525 7.12012 1.95166L5.26074 3.84424L1.97363 6.84912L1.79932 6.43408L4.47217 6.26807H14.9727C15.1885 6.26807 15.3628 6.33724 15.4956 6.47559C15.634 6.61393 15.7031 6.79102 15.7031 7.00684C15.7031 7.22266 15.634 7.39974 15.4956 7.53809C15.3628 7.67643 15.1885 7.74561 14.9727 7.74561H4.47217L1.79932 7.57959L1.97363 7.17285L5.26074 10.1694L7.12012 12.062C7.18652 12.1284 7.23633 12.2087 7.26953 12.3027C7.30827 12.3913 7.32764 12.4854 7.32764 12.585C7.32764 12.7897 7.2557 12.9585 7.11182 13.0913C6.97347 13.2297 6.80192 13.2988 6.59717 13.2988C6.39795 13.2988 6.2181 13.2214 6.05762 13.0664L0.545898 7.56299C0.374349 7.40251 0.288574 7.21712 0.288574 7.00684Z" fill="#0A84FF"/>
</svg>
