<svg width="16" height="20" viewBox="0 0 16 20" fill="none" xmlns="http://www.w3.org/2000/svg">
<path d="M4.08008 5.09277C4.31445 5.09277 4.5166 5.01074 4.68652 4.84668C4.85645 4.67676 4.94141 4.47461 4.94141 4.24023C4.94141 4.00586 4.85645 3.80664 4.68652 3.64258C4.5166 3.47266 4.31445 3.3877 4.08008 3.3877C3.85156 3.3877 3.65234 3.47266 3.48242 3.64258C3.3125 3.8125 3.22754 4.01172 3.22754 4.24023C3.22754 4.47461 3.3125 4.67676 3.48242 4.84668C3.65234 5.01074 3.85156 5.09277 4.08008 5.09277ZM4.08008 7.81738C4.31445 7.81738 4.5166 7.73535 4.68652 7.57129C4.85645 7.40137 4.94141 7.19922 4.94141 6.96484C4.94141 6.72461 4.85645 6.52539 4.68652 6.36719C4.5166 6.20312 4.31445 6.12109 4.08008 6.12109C3.8457 6.12109 3.64355 6.20312 3.47363 6.36719C3.30957 6.53125 3.22754 6.73047 3.22754 6.96484C3.22754 7.19922 3.30957 7.40137 3.47363 7.57129C3.64355 7.73535 3.8457 7.81738 4.08008 7.81738ZM4.08008 10.6738C4.31445 10.6738 4.5166 10.5889 4.68652 10.4189C4.85645 10.249 4.94141 10.0498 4.94141 9.82129C4.94141 9.58105 4.85645 9.37891 4.68652 9.21484C4.5166 9.05078 4.31445 8.96875 4.08008 8.96875C3.85156 8.96875 3.65234 9.05371 3.48242 9.22363C3.3125 9.3877 3.22754 9.58691 3.22754 9.82129C3.22754 10.0498 3.3125 10.249 3.48242 10.4189C3.65234 10.5889 3.85156 10.6738 4.08008 10.6738ZM6.66406 4.84668H12.1748C12.333 4.84668 12.4707 4.78809 12.5879 4.6709C12.7051 4.54785 12.7637 4.4043 12.7637 4.24023C12.7637 4.08203 12.7051 3.94434 12.5879 3.82715C12.4707 3.7041 12.333 3.64258 12.1748 3.64258H6.66406C6.5 3.64258 6.35938 3.7041 6.24219 3.82715C6.125 3.94434 6.06641 4.08203 6.06641 4.24023C6.06641 4.4043 6.125 4.54785 6.24219 4.6709C6.35938 4.78809 6.5 4.84668 6.66406 4.84668ZM6.66406 7.5625H12.1748C12.3389 7.5625 12.4766 7.50391 12.5879 7.38672C12.7051 7.26953 12.7637 7.12891 12.7637 6.96484C12.7637 6.79492 12.7051 6.6543 12.5879 6.54297C12.4766 6.42578 12.3389 6.36719 12.1748 6.36719H6.66406C6.49414 6.36719 6.35059 6.42578 6.2334 6.54297C6.12207 6.6543 6.06641 6.79492 6.06641 6.96484C6.06641 7.12891 6.12207 7.26953 6.2334 7.38672C6.35059 7.50391 6.49414 7.5625 6.66406 7.5625ZM6.66406 10.4102H12.1748C12.333 10.4102 12.4707 10.3516 12.5879 10.2344C12.7051 10.1172 12.7637 9.97949 12.7637 9.82129C12.7637 9.65137 12.7051 9.50781 12.5879 9.39062C12.4766 9.27344 12.3389 9.21484 12.1748 9.21484H6.66406C6.49414 9.21484 6.35059 9.27344 6.2334 9.39062C6.12207 9.50781 6.06641 9.65137 6.06641 9.82129C6.06641 9.97949 6.125 10.1172 6.24219 10.2344C6.35938 10.3516 6.5 10.4102 6.66406 10.4102ZM0.458984 16.29V3.02734C0.458984 2.08398 0.699219 1.36914 1.17969 0.882812C1.66016 0.390625 2.37207 0.144531 3.31543 0.144531H12.6758C13.6191 0.144531 14.3311 0.390625 14.8115 0.882812C15.292 1.36914 15.5322 2.08398 15.5322 3.02734V16.29C15.5322 17.2393 15.292 17.957 14.8115 18.4434C14.3311 18.9297 13.6191 19.1729 12.6758 19.1729H3.31543C2.37207 19.1729 1.66016 18.9297 1.17969 18.4434C0.699219 17.957 0.458984 17.2393 0.458984 16.29Z" fill="#999999"/>
</svg>
