<svg width="22" height="22" viewBox="0 0 22 22" fill="none" xmlns="http://www.w3.org/2000/svg">
<path d="M10.9917 21.8145C9.80745 21.8145 8.67578 21.6291 7.59668 21.2583C6.52311 20.8931 5.53532 20.3784 4.6333 19.7144C3.73128 19.0503 2.94824 18.2673 2.28418 17.3652C1.62012 16.4632 1.1027 15.4727 0.731934 14.3936C0.366699 13.3145 0.184082 12.1855 0.184082 11.0068C0.184082 9.82259 0.366699 8.69368 0.731934 7.62012C1.09717 6.54102 1.61182 5.55046 2.27588 4.64844C2.94548 3.74642 3.72852 2.96338 4.625 2.29932C5.52702 1.62972 6.51481 1.1123 7.58838 0.74707C8.66748 0.376302 9.79915 0.190918 10.9834 0.190918C12.1676 0.190918 13.2993 0.376302 14.3784 0.74707C15.4575 1.1123 16.4481 1.62972 17.3501 2.29932C18.2521 2.96338 19.0352 3.74642 19.6992 4.64844C20.3688 5.55046 20.8862 6.54102 21.2515 7.62012C21.6222 8.69368 21.8076 9.82259 21.8076 11.0068C21.8076 12.1855 21.6222 13.3145 21.2515 14.3936C20.8862 15.4727 20.3688 16.4632 19.6992 17.3652C19.0352 18.2673 18.2521 19.0503 17.3501 19.7144C16.4481 20.3784 15.4575 20.8931 14.3784 21.2583C13.3049 21.6291 12.1759 21.8145 10.9917 21.8145ZM9.80469 16.2031C9.95964 16.2031 10.1007 16.1672 10.228 16.0952C10.3608 16.0233 10.4743 15.9126 10.5684 15.7632L15.7646 7.61182C15.82 7.52327 15.8698 7.42643 15.9141 7.32129C15.9639 7.21615 15.9888 7.11377 15.9888 7.01416C15.9888 6.80387 15.9085 6.63509 15.748 6.50781C15.5931 6.38053 15.416 6.31689 15.2168 6.31689C15.0951 6.31689 14.9761 6.35286 14.8599 6.4248C14.7492 6.49121 14.6523 6.59359 14.5693 6.73193L9.76318 14.3687L7.37256 11.3804C7.26742 11.231 7.15951 11.1313 7.04883 11.0815C6.93815 11.0262 6.81917 10.9985 6.69189 10.9985C6.48161 10.9985 6.30452 11.0732 6.16064 11.2227C6.0223 11.3665 5.95312 11.5409 5.95312 11.7456C5.95312 11.8507 5.97249 11.9559 6.01123 12.061C6.04997 12.1606 6.10531 12.2547 6.17725 12.3433L8.99951 15.7632C9.12126 15.9237 9.24577 16.0371 9.37305 16.1035C9.50586 16.1699 9.64974 16.2031 9.80469 16.2031Z" fill="black"/>
</svg>
