<svg width="19" height="19" viewBox="0 0 19 19" fill="none" xmlns="http://www.w3.org/2000/svg">
<path d="M1.65137 6.82422C1.07715 6.82422 0.790039 6.53125 0.790039 5.94531V3.80957C0.790039 2.87207 1.0332 2.16309 1.51953 1.68262C2.00586 1.20215 2.72363 0.961914 3.67285 0.961914H5.80859C6.38867 0.961914 6.67871 1.24902 6.67871 1.82324C6.67871 2.40332 6.38867 2.69336 5.80859 2.69336H3.77832C3.36816 2.69336 3.05469 2.79883 2.83789 3.00977C2.62695 3.2207 2.52148 3.54004 2.52148 3.96777V5.94531C2.52148 6.53125 2.23145 6.82422 1.65137 6.82422ZM17.3398 6.82422C16.7656 6.82422 16.4785 6.53125 16.4785 5.94531V3.96777C16.4785 3.54004 16.3672 3.2207 16.1445 3.00977C15.9277 2.79883 15.6172 2.69336 15.2129 2.69336H13.1826C12.6025 2.69336 12.3125 2.40332 12.3125 1.82324C12.3125 1.24902 12.6025 0.961914 13.1826 0.961914H15.3184C16.2734 0.961914 16.9941 1.20215 17.4805 1.68262C17.9668 2.16309 18.21 2.87207 18.21 3.80957V5.94531C18.21 6.53125 17.9199 6.82422 17.3398 6.82422ZM3.67285 18.373C2.72363 18.373 2.00586 18.1299 1.51953 17.6436C1.0332 17.1631 0.790039 16.4541 0.790039 15.5166V13.3896C0.790039 12.8037 1.07715 12.5107 1.65137 12.5107C2.23145 12.5107 2.52148 12.8037 2.52148 13.3896V15.3672C2.52148 15.7949 2.62695 16.1143 2.83789 16.3252C3.05469 16.5361 3.36816 16.6416 3.77832 16.6416H5.80859C6.38867 16.6416 6.67871 16.9316 6.67871 17.5117C6.67871 18.0859 6.38867 18.373 5.80859 18.373H3.67285ZM13.1826 18.373C12.6025 18.373 12.3125 18.0859 12.3125 17.5117C12.3125 16.9316 12.6025 16.6416 13.1826 16.6416H15.2129C15.6172 16.6416 15.9277 16.5361 16.1445 16.3252C16.3672 16.1143 16.4785 15.7949 16.4785 15.3672V13.3896C16.4785 12.8037 16.7656 12.5107 17.3398 12.5107C17.9199 12.5107 18.21 12.8037 18.21 13.3896V15.5166C18.21 16.4541 17.9668 17.1631 17.4805 17.6436C16.9941 18.1299 16.2734 18.373 15.3184 18.373H13.1826ZM5.67676 13.873C5.57129 13.873 5.48047 13.8379 5.4043 13.7676C5.32812 13.6914 5.29004 13.5977 5.29004 13.4863V10.4365C5.29004 10.3252 5.32812 10.2344 5.4043 10.1641C5.48047 10.0879 5.57129 10.0498 5.67676 10.0498H8.72656C8.83789 10.0498 8.92871 10.0879 8.99902 10.1641C9.0752 10.2344 9.11328 10.3252 9.11328 10.4365V13.4863C9.11328 13.5977 9.0752 13.6914 8.99902 13.7676C8.92871 13.8379 8.83789 13.873 8.72656 13.873H5.67676ZM6.05469 13.1084H8.34863V10.8145H6.05469V13.1084ZM6.72266 12.4316V11.4736H7.68066V12.4316H6.72266ZM5.67676 9.28516C5.57129 9.28516 5.48047 9.25 5.4043 9.17969C5.32812 9.10352 5.29004 9.0127 5.29004 8.90723V5.84863C5.29004 5.74316 5.32812 5.65234 5.4043 5.57617C5.48047 5.5 5.57129 5.46191 5.67676 5.46191H8.72656C8.83789 5.46191 8.92871 5.5 8.99902 5.57617C9.0752 5.65234 9.11328 5.74316 9.11328 5.84863V8.90723C9.11328 9.0127 9.0752 9.10352 8.99902 9.17969C8.92871 9.25 8.83789 9.28516 8.72656 9.28516H5.67676ZM6.05469 8.52051H8.34863V6.22656H6.05469V8.52051ZM6.72266 7.85254V6.89453H7.68066V7.85254H6.72266ZM10.2559 9.28516C10.1445 9.28516 10.0508 9.25 9.97461 9.17969C9.9043 9.10352 9.86914 9.0127 9.86914 8.90723V5.84863C9.86914 5.74316 9.9043 5.65234 9.97461 5.57617C10.0508 5.5 10.1445 5.46191 10.2559 5.46191H13.3057C13.417 5.46191 13.5078 5.5 13.5781 5.57617C13.6484 5.65234 13.6836 5.74316 13.6836 5.84863V8.90723C13.6836 9.0127 13.6484 9.10352 13.5781 9.17969C13.5078 9.25 13.417 9.28516 13.3057 9.28516H10.2559ZM10.6338 8.52051H12.9277V6.22656H10.6338V8.52051ZM11.3018 7.85254V6.89453H12.2598V7.85254H11.3018ZM9.9834 13.7588V12.8008H10.9326V13.7588H9.9834ZM12.6201 13.7588V12.8008H13.5781V13.7588H12.6201ZM11.3018 12.4316V11.4736H12.2598V12.4316H11.3018ZM9.9834 11.1133V10.1553H10.9326V11.1133H9.9834ZM12.6201 11.1133V10.1553H13.5781V11.1133H12.6201Z" fill="#999999"/>
</svg>
