<svg width="17" height="16" viewBox="0 0 17 16" fill="none" xmlns="http://www.w3.org/2000/svg">
<path d="M5.00781 11.0234C4.21094 10.2266 3.49479 9.39062 2.85938 8.51562C2.22396 7.64062 1.72135 6.76823 1.35156 5.89844C0.981771 5.02865 0.796875 4.20312 0.796875 3.42188C0.796875 2.90104 0.890625 2.41146 1.07812 1.95312C1.26562 1.48958 1.5599 1.07031 1.96094 0.695312C2.4401 0.247396 2.95833 0.0234375 3.51562 0.0234375C3.75 0.0234375 3.97656 0.0729167 4.19531 0.171875C4.41406 0.265625 4.60156 0.421875 4.75781 0.640625L6.46094 3.03906C6.60677 3.23698 6.71094 3.41927 6.77344 3.58594C6.84115 3.7526 6.875 3.90885 6.875 4.05469C6.875 4.2474 6.82292 4.43229 6.71875 4.60938C6.61458 4.78125 6.47135 4.95833 6.28906 5.14062L5.71094 5.72656C5.6276 5.8099 5.58594 5.91146 5.58594 6.03125C5.58594 6.09375 5.59635 6.15625 5.61719 6.21875C5.63802 6.27604 5.66146 6.32552 5.6875 6.36719C5.82292 6.61719 6.0599 6.9401 6.39844 7.33594C6.73698 7.73177 7.10417 8.13021 7.5 8.53125C7.90104 8.92708 8.29948 9.29427 8.69531 9.63281C9.09115 9.97135 9.41667 10.2109 9.67188 10.3516C9.70833 10.3724 9.75521 10.3932 9.8125 10.4141C9.875 10.4349 9.9401 10.4453 10.0078 10.4453C10.1276 10.4453 10.2292 10.4036 10.3125 10.3203L10.8906 9.74219C11.0729 9.5599 11.25 9.41927 11.4219 9.32031C11.599 9.21615 11.7839 9.16406 11.9766 9.16406C12.1224 9.16406 12.2786 9.19792 12.4453 9.26562C12.612 9.32812 12.7943 9.42969 12.9922 9.57031L15.4062 11.2812C15.6198 11.4375 15.7734 11.6224 15.8672 11.8359C15.9661 12.0443 16.0156 12.2656 16.0156 12.5C16.0156 12.7708 15.9557 13.0391 15.8359 13.3047C15.7214 13.5703 15.5573 13.8229 15.3438 14.0625C14.974 14.474 14.5599 14.7734 14.1016 14.9609C13.6432 15.1536 13.151 15.25 12.625 15.25C11.8438 15.25 11.0156 15.0625 10.1406 14.6875C9.27083 14.3177 8.39583 13.8125 7.51562 13.1719C6.64062 12.5365 5.80469 11.8203 5.00781 11.0234Z" fill="#D7F31E"/>
</svg>
