<svg width="24" height="28" viewBox="0 0 24 28" fill="none" xmlns="http://www.w3.org/2000/svg">
<path d="M0.361816 23.5498C0.361816 24.9121 0.70459 25.9316 1.39014 26.6084C2.08447 27.2939 3.12158 27.6367 4.50146 27.6367H20.0186C21.1963 27.6367 22.1147 27.2939 22.7739 26.6084C23.4331 25.9316 23.7627 24.9121 23.7627 23.5498V9.90479C23.7627 8.54248 23.4155 7.52295 22.7212 6.84619C22.0269 6.16064 20.9941 5.81787 19.623 5.81787H17.5137C17.4961 4.89502 17.2368 4.04688 16.7358 3.27344C16.2437 2.49121 15.5889 1.86719 14.7715 1.40137C13.9541 0.926758 13.0488 0.689453 12.0557 0.689453C11.0625 0.689453 10.1572 0.926758 9.33984 1.40137C8.52246 1.86719 7.86768 2.49121 7.37549 3.27344C6.8833 4.04688 6.62402 4.89502 6.59766 5.81787H4.50146C3.12158 5.81787 2.08447 6.16064 1.39014 6.84619C0.70459 7.52295 0.361816 8.54248 0.361816 9.90479V23.5498ZM8.72021 5.81787C8.73779 5.24658 8.896 4.72363 9.19482 4.24902C9.49365 3.77441 9.88916 3.39648 10.3813 3.11523C10.8823 2.83398 11.4404 2.69336 12.0557 2.69336C12.6797 2.69336 13.2378 2.83398 13.73 3.11523C14.231 3.39648 14.6265 3.77441 14.9165 4.24902C15.2153 4.72363 15.3735 5.24658 15.3911 5.81787H8.72021Z" fill="white"/>
</svg>
