<svg width="24" height="27" viewBox="0 0 24 27" fill="none" xmlns="http://www.w3.org/2000/svg">
<path d="M4.50146 26.7441C3.12158 26.7441 2.08447 26.4014 1.39014 25.7158C0.70459 25.0391 0.361816 24.0195 0.361816 22.6572V9.01221C0.361816 7.6499 0.70459 6.63037 1.39014 5.95361C2.08447 5.26807 3.12158 4.92529 4.50146 4.92529H19.623C20.9941 4.92529 22.0269 5.26807 22.7212 5.95361C23.4155 6.63037 23.7627 7.6499 23.7627 9.01221V22.6572C23.7627 24.0195 23.4331 25.0391 22.7739 25.7158C22.1147 26.4014 21.1963 26.7441 20.0186 26.7441H4.50146ZM6.86133 5.43945C6.86133 4.46387 7.08984 3.58496 7.54688 2.80273C8.00391 2.01172 8.62354 1.3833 9.40576 0.91748C10.188 0.45166 11.0713 0.21875 12.0557 0.21875C13.04 0.21875 13.9233 0.45166 14.7056 0.91748C15.4966 1.3833 16.1206 2.01172 16.5776 2.80273C17.0347 3.58496 17.2632 4.46387 17.2632 5.43945L15.1406 5.45264C15.1406 4.81982 15.0088 4.26172 14.7451 3.77832C14.4902 3.29492 14.1299 2.91699 13.6641 2.64453C13.207 2.36328 12.6709 2.22266 12.0557 2.22266C11.4492 2.22266 10.9131 2.36328 10.4473 2.64453C9.99023 2.91699 9.62988 3.29492 9.36621 3.77832C9.11133 4.26172 8.98389 4.81982 8.98389 5.45264L6.86133 5.43945Z" fill="black"/>
</svg>
