<svg width="34" height="17" viewBox="0 0 34 17" fill="none" xmlns="http://www.w3.org/2000/svg">
<path d="M11.7744 16.5996C11.0537 16.5996 10.5498 16.4912 10.2627 16.2744C9.97559 16.0635 9.83203 15.7559 9.83203 15.3516C9.83203 14.7832 10.002 14.1885 10.3418 13.5674C10.6875 12.9463 11.1826 12.3633 11.8271 11.8184C12.4775 11.2734 13.2598 10.8311 14.1738 10.4912C15.0879 10.1514 16.1133 9.98145 17.25 9.98145C18.3926 9.98145 19.4209 10.1514 20.335 10.4912C21.249 10.8311 22.0283 11.2734 22.6729 11.8184C23.3232 12.3633 23.8184 12.9463 24.1582 13.5674C24.5039 14.1885 24.6768 14.7832 24.6768 15.3516C24.6768 15.7559 24.5332 16.0635 24.2461 16.2744C23.959 16.4912 23.4521 16.5996 22.7256 16.5996H11.7744ZM17.2588 8.41699C16.6201 8.41699 16.0312 8.24414 15.4922 7.89844C14.959 7.55273 14.5283 7.08691 14.2002 6.50098C13.8779 5.91504 13.7139 5.25879 13.708 4.53223C13.708 3.81738 13.8721 3.17285 14.2002 2.59863C14.5283 2.01855 14.959 1.55859 15.4922 1.21875C16.0312 0.878906 16.6201 0.708984 17.2588 0.708984C17.8975 0.708984 18.4834 0.875977 19.0166 1.20996C19.5557 1.54395 19.9863 2.00098 20.3086 2.58105C20.6367 3.15527 20.8008 3.7998 20.8008 4.51465C20.8008 5.24707 20.6367 5.90918 20.3086 6.50098C19.9863 7.08691 19.5557 7.55273 19.0166 7.89844C18.4834 8.24414 17.8975 8.41699 17.2588 8.41699ZM2.24707 16.5996C1.65527 16.5996 1.23633 16.4795 0.990234 16.2393C0.744141 16.0049 0.621094 15.6709 0.621094 15.2373C0.621094 14.6396 0.773438 14.0332 1.07812 13.418C1.38281 12.7969 1.81641 12.2256 2.37891 11.7041C2.94727 11.1826 3.62695 10.7607 4.41797 10.4385C5.21484 10.1162 6.10547 9.95508 7.08984 9.95508C7.88672 9.95508 8.59863 10.0605 9.22559 10.2715C9.8584 10.4766 10.418 10.7344 10.9043 11.0449C10.4062 11.4375 9.97559 11.8828 9.6123 12.3809C9.24902 12.873 8.96777 13.3799 8.76855 13.9014C8.5752 14.417 8.47852 14.9092 8.47852 15.3779C8.47852 15.8525 8.5957 16.2598 8.83008 16.5996H2.24707ZM7.08984 8.61914C6.5332 8.61914 6.02051 8.46973 5.55176 8.1709C5.08301 7.86621 4.70801 7.45898 4.42676 6.94922C4.14551 6.43359 4.00488 5.8623 4.00488 5.23535C3.99902 4.6084 4.13965 4.0459 4.42676 3.54785C4.71387 3.04395 5.0918 2.64551 5.56055 2.35254C6.0293 2.05371 6.53906 1.9043 7.08984 1.9043C7.64062 1.9043 8.15039 2.05078 8.61914 2.34375C9.09375 2.63086 9.47168 3.02637 9.75293 3.53027C10.0342 4.02832 10.1748 4.59082 10.1748 5.21777C10.1748 5.85645 10.0342 6.43359 9.75293 6.94922C9.47168 7.45898 9.09668 7.86621 8.62793 8.1709C8.15918 8.46973 7.64648 8.61914 7.08984 8.61914ZM32.2529 16.5996H25.6611C25.8955 16.2598 26.0127 15.8525 26.0127 15.3779C26.0186 14.9092 25.9219 14.417 25.7227 13.9014C25.5293 13.3799 25.251 12.873 24.8877 12.3809C24.5244 11.8828 24.0938 11.4375 23.5957 11.0449C24.0762 10.7344 24.6328 10.4766 25.2656 10.2715C25.8984 10.0605 26.6133 9.95508 27.4102 9.95508C28.3945 9.95508 29.2822 10.1162 30.0732 10.4385C30.8701 10.7607 31.5498 11.1826 32.1123 11.7041C32.6807 12.2256 33.1172 12.7969 33.4219 13.418C33.7266 14.0332 33.8789 14.6396 33.8789 15.2373C33.8789 15.6709 33.7559 16.0049 33.5098 16.2393C33.2637 16.4795 32.8447 16.5996 32.2529 16.5996ZM27.4014 8.61914C26.8506 8.61914 26.3408 8.46973 25.8721 8.1709C25.4033 7.86621 25.0254 7.45898 24.7383 6.94922C24.457 6.43359 24.3164 5.85645 24.3164 5.21777C24.3164 4.59082 24.457 4.02832 24.7383 3.53027C25.0254 3.02637 25.4033 2.63086 25.8721 2.34375C26.3467 2.05078 26.8564 1.9043 27.4014 1.9043C27.958 1.9043 28.4707 2.05371 28.9395 2.35254C29.4082 2.64551 29.7832 3.04395 30.0645 3.54785C30.3516 4.0459 30.4951 4.6084 30.4951 5.23535C30.4951 5.8623 30.3516 6.43359 30.0645 6.94922C29.7832 7.45898 29.4082 7.86621 28.9395 8.1709C28.4766 8.46973 27.9639 8.61914 27.4014 8.61914Z" fill="#999999"/>
</svg>
