<svg width="362" height="94" viewBox="0 0 362 94" fill="none" xmlns="http://www.w3.org/2000/svg">
<rect x="0.5" width="361" height="94" rx="8" fill="#DCDCDC"/>
<path d="M138.028 42.4787C138.028 41.3903 138.917 40.9715 140.389 40.9715C142.5 40.9715 145.167 41.6136 147.278 42.758V36.1988C144.972 35.2778 142.695 34.9149 140.389 34.9149C134.75 34.9149 131 37.8736 131 42.8139C131 50.517 141.555 49.2891 141.555 52.6105C141.555 53.8942 140.445 54.313 138.889 54.313C136.583 54.313 133.639 53.3639 131.305 52.0801V58.7228C133.889 59.8393 136.5 60.3136 138.889 60.3136C144.667 60.3136 148.639 57.439 148.639 52.4429C148.611 44.1256 138.028 45.6047 138.028 42.4787ZM156.805 29.3329L150.028 30.7841L150 53.1406C150 57.2716 153.083 60.3136 157.195 60.3136C159.472 60.3136 161.139 59.895 162.055 59.3926V53.7268C161.167 54.0897 156.778 55.3735 156.778 51.2427V41.3344H162.055V35.3895H156.778L156.805 29.3329ZM170.695 37.4548L170.25 35.3895H164.25V59.8112H171.195V43.2603C172.833 41.1112 175.611 41.502 176.472 41.8089V35.3895C175.583 35.0545 172.333 34.4404 170.695 37.4548ZM178.167 35.3895H185.139V59.8112H178.167V35.3895ZM178.167 33.2682L185.139 31.7611V26.0952L178.167 27.5745V33.2682ZM199.639 34.9149C196.917 34.9149 195.167 36.1988 194.195 37.0921L193.833 35.3616H187.722V67.9052L194.667 66.4261L194.695 58.5274C195.695 59.2531 197.167 60.2858 199.611 60.2858C204.583 60.2858 209.111 56.2666 209.111 47.419C209.083 39.3248 204.5 34.9149 199.639 34.9149ZM197.972 54.1454C196.333 54.1454 195.361 53.5594 194.695 52.8337L194.667 42.4787C195.389 41.6694 196.389 41.1112 197.972 41.1112C200.5 41.1112 202.25 43.958 202.25 47.6143C202.25 51.3544 200.528 54.1454 197.972 54.1454ZM231 47.6981C231 40.5529 227.555 34.9149 220.972 34.9149C214.361 34.9149 210.361 40.5531 210.361 47.6423C210.361 56.0433 215.083 60.2858 221.861 60.2858C225.167 60.2858 227.667 59.5322 229.555 58.4716V52.8894C227.667 53.8385 225.5 54.4246 222.75 54.4246C220.055 54.4246 217.667 53.4756 217.361 50.1822H230.945C230.945 49.8191 231 48.3679 231 47.6981ZM217.278 45.0466C217.278 41.8927 219.195 40.5808 220.945 40.5808C222.639 40.5808 224.445 41.8927 224.445 45.0466H217.278Z" fill="#6772E5"/>
</svg>
