<svg width="22" height="15" viewBox="0 0 22 15" fill="none" xmlns="http://www.w3.org/2000/svg">
<path d="M10.0625 14.4844C9.375 14.4844 8.89583 14.375 8.625 14.1562C8.35938 13.9427 8.22656 13.6432 8.22656 13.2578C8.22656 12.7578 8.38021 12.2344 8.6875 11.6875C9 11.1354 9.44531 10.6198 10.0234 10.1406C10.6068 9.66146 11.3073 9.27344 12.125 8.97656C12.9427 8.67448 13.8568 8.52344 14.8672 8.52344C15.8828 8.52344 16.7995 8.67448 17.6172 8.97656C18.4349 9.27344 19.1328 9.66146 19.7109 10.1406C20.2943 10.6198 20.7396 11.1354 21.0469 11.6875C21.3594 12.2344 21.5156 12.7578 21.5156 13.2578C21.5156 13.6432 21.3802 13.9427 21.1094 14.1562C20.8438 14.375 20.3646 14.4844 19.6719 14.4844H10.0625ZM14.875 7.15625C14.2865 7.15625 13.75 7 13.2656 6.6875C12.7812 6.375 12.3932 5.95573 12.1016 5.42969C11.8151 4.90365 11.6719 4.3151 11.6719 3.66406C11.6719 3.02865 11.8177 2.45052 12.1094 1.92969C12.401 1.40885 12.7891 0.994792 13.2734 0.6875C13.7578 0.380208 14.2917 0.226562 14.875 0.226562C15.4583 0.226562 15.9896 0.380208 16.4688 0.6875C16.9531 0.989583 17.3411 1.40104 17.6328 1.92188C17.9245 2.44271 18.0703 3.01823 18.0703 3.64844C18.0703 4.30469 17.9245 4.89844 17.6328 5.42969C17.3464 5.95573 16.9609 6.375 16.4766 6.6875C15.9922 7 15.4583 7.15625 14.875 7.15625ZM1.55469 14.4844C0.976562 14.4844 0.570312 14.3594 0.335938 14.1094C0.106771 13.8646 -0.0078125 13.5208 -0.0078125 13.0781C-0.0078125 12.5677 0.130208 12.0443 0.40625 11.5078C0.6875 10.9714 1.08333 10.4766 1.59375 10.0234C2.10938 9.57031 2.72135 9.20312 3.42969 8.92188C4.13802 8.64062 4.92188 8.5 5.78125 8.5C6.44792 8.5 7.05729 8.58594 7.60938 8.75781C8.16667 8.92969 8.65365 9.14583 9.07031 9.40625C8.60156 9.78646 8.20312 10.2057 7.875 10.6641C7.55208 11.1172 7.30729 11.5807 7.14062 12.0547C6.97917 12.5234 6.90625 12.9688 6.92188 13.3906C6.94271 13.8125 7.0599 14.1771 7.27344 14.4844H1.55469ZM5.78125 7.32812C5.27083 7.32812 4.80469 7.19271 4.38281 6.92188C3.96094 6.65104 3.625 6.28646 3.375 5.82812C3.125 5.36458 3 4.85156 3 4.28906C3 3.73698 3.125 3.23438 3.375 2.78125C3.63021 2.32812 3.96875 1.96615 4.39062 1.69531C4.8125 1.42448 5.27604 1.28906 5.78125 1.28906C6.28646 1.28906 6.75 1.42448 7.17188 1.69531C7.59375 1.96094 7.92969 2.32031 8.17969 2.77344C8.4349 3.22135 8.5625 3.72396 8.5625 4.28125C8.5625 4.84896 8.4375 5.36458 8.1875 5.82812C7.9375 6.28646 7.60156 6.65104 7.17969 6.92188C6.75781 7.19271 6.29167 7.32812 5.78125 7.32812Z" fill="white"/>
</svg>
