<svg width="25" height="25" viewBox="0 0 25 25" fill="none" xmlns="http://www.w3.org/2000/svg">
<path d="M6.72168 24.2046C5.65365 24.2046 4.84847 23.9362 4.30615 23.3994C3.76383 22.8626 3.49268 22.063 3.49268 21.0005V10.1514C3.49268 9.08887 3.76383 8.29199 4.30615 7.76074C4.84847 7.22396 5.65365 6.95557 6.72168 6.95557H10.1748V8.4248H6.75488C6.17383 8.4248 5.72835 8.57699 5.41846 8.88135C5.1141 9.18571 4.96191 9.63395 4.96191 10.2261V20.9258C4.96191 21.5234 5.1141 21.9717 5.41846 22.2705C5.72835 22.5749 6.17383 22.7271 6.75488 22.7271H19.0068C19.5768 22.7271 20.0168 22.5749 20.3267 22.2705C20.6421 21.9717 20.7998 21.5234 20.7998 20.9258V10.2261C20.7998 9.63395 20.6421 9.18571 20.3267 8.88135C20.0168 8.57699 19.5768 8.4248 19.0068 8.4248H15.5869V6.95557H19.04C20.1136 6.95557 20.9188 7.22396 21.4556 7.76074C21.9979 8.29753 22.269 9.0944 22.269 10.1514V21.0005C22.269 22.0575 21.9979 22.8543 21.4556 23.3911C20.9188 23.9334 20.1136 24.2046 19.04 24.2046H6.72168ZM12.8809 15.9038C12.6816 15.9038 12.5101 15.8346 12.3662 15.6963C12.2223 15.5524 12.1504 15.3836 12.1504 15.1899V3.85938L12.2085 2.28223L11.3369 3.18701L9.58545 5.01318C9.45264 5.1626 9.28385 5.2373 9.0791 5.2373C8.89095 5.2373 8.73324 5.17643 8.60596 5.05469C8.48421 4.93294 8.42334 4.77799 8.42334 4.58984C8.42334 4.49577 8.43994 4.40999 8.47314 4.33252C8.51188 4.25505 8.56722 4.18034 8.63916 4.1084L12.3496 0.497559C12.4437 0.409017 12.5322 0.348145 12.6152 0.314941C12.6982 0.276204 12.7868 0.256836 12.8809 0.256836C12.9749 0.256836 13.0635 0.276204 13.1465 0.314941C13.2295 0.348145 13.318 0.409017 13.4121 0.497559L17.1226 4.1084C17.189 4.18034 17.2415 4.25505 17.2803 4.33252C17.319 4.40999 17.3384 4.49577 17.3384 4.58984C17.3384 4.77799 17.272 4.93294 17.1392 5.05469C17.0119 5.17643 16.8542 5.2373 16.666 5.2373C16.4668 5.2373 16.3008 5.1626 16.168 5.01318L14.4248 3.18701L13.5532 2.28223L13.6113 3.85938V15.1899C13.6113 15.3836 13.5394 15.5524 13.3955 15.6963C13.2516 15.8346 13.0801 15.9038 12.8809 15.9038Z" fill="#007AFF"/>
</svg>
