<svg width="19" height="14" viewBox="0 0 19 14" fill="none" xmlns="http://www.w3.org/2000/svg">
<path d="M11.832 9.64648C11.5938 9.86133 11.4102 10.1211 11.2812 10.4258C11.1523 10.7266 11.0879 11.0508 11.0879 11.3984C11.0879 11.5039 11.0957 11.6074 11.1113 11.709H7.49023C7.50586 11.6074 7.51367 11.5059 7.51367 11.4043C7.51367 11.0566 7.44727 10.7305 7.31445 10.4258C7.18555 10.1211 7.00586 9.85352 6.77539 9.62305C6.54492 9.39258 6.27734 9.21289 5.97266 9.08398C5.66797 8.95117 5.34375 8.88477 5 8.88477C4.64844 8.88477 4.32031 8.95117 4.01562 9.08398C3.71094 9.21289 3.44336 9.39258 3.21289 9.62305C2.98242 9.85352 2.80078 10.1211 2.66797 10.4258C2.53906 10.7305 2.47461 11.0566 2.47461 11.4043C2.47461 11.5098 2.48242 11.6094 2.49805 11.7031H2.14648C1.78711 11.7031 1.48438 11.6348 1.23828 11.498C0.996094 11.3652 0.810547 11.1699 0.681641 10.9121C0.556641 10.6543 0.494141 10.3438 0.494141 9.98047V2.23438C0.494141 1.67188 0.642578 1.24219 0.939453 0.945312C1.23633 0.648438 1.66602 0.5 2.22852 0.5H10.0977C10.6641 0.5 11.0938 0.650391 11.3867 0.951172C11.6836 1.24805 11.832 1.67578 11.832 2.23438V9.64648ZM12.6582 3.74023H14.2227C14.5312 3.74023 14.7949 3.7832 15.0137 3.86914C15.2324 3.95117 15.4355 4.09375 15.623 4.29688L17.6445 6.58203C17.8164 6.77734 17.9316 6.96484 17.9902 7.14453C18.0527 7.32031 18.084 7.5625 18.084 7.87109V9.98047C18.084 10.5273 17.9434 10.9512 17.6621 11.252C17.3809 11.5566 16.9688 11.709 16.4258 11.709H16.1035C16.1191 11.6035 16.127 11.5 16.127 11.3984C16.127 11.0508 16.0586 10.7246 15.9219 10.4199C15.7891 10.1152 15.6055 9.84766 15.3711 9.61719C15.1406 9.38672 14.8711 9.20703 14.5625 9.07812C14.2578 8.94531 13.9316 8.87891 13.584 8.87891C13.416 8.87891 13.2539 8.89844 13.0977 8.9375C12.9414 8.97656 12.7949 9.03125 12.6582 9.10156V3.74023ZM14.3105 7.60156H16.8066C16.7988 7.53516 16.7793 7.47461 16.748 7.41992C16.7168 7.36523 16.6777 7.3125 16.6309 7.26172L14.8906 5.30469C14.7812 5.17969 14.6758 5.09961 14.5742 5.06445C14.4766 5.02539 14.3594 5.00586 14.2227 5.00586H13.7422V7.03906C13.7422 7.21094 13.793 7.34766 13.8945 7.44922C14 7.55078 14.1387 7.60156 14.3105 7.60156ZM5 13.2031C4.66406 13.2031 4.35938 13.1211 4.08594 12.957C3.81641 12.7969 3.59961 12.5801 3.43555 12.3066C3.27539 12.0371 3.19531 11.7363 3.19531 11.4043C3.19531 11.0723 3.27539 10.7695 3.43555 10.4961C3.59961 10.2227 3.81641 10.0059 4.08594 9.8457C4.35938 9.68555 4.66406 9.60547 5 9.60547C5.32812 9.60547 5.62891 9.68555 5.90234 9.8457C6.17578 10.0059 6.39258 10.2227 6.55273 10.4961C6.7168 10.7695 6.79883 11.0723 6.79883 11.4043C6.79883 11.7324 6.7168 12.0332 6.55273 12.3066C6.39258 12.5801 6.17578 12.7969 5.90234 12.957C5.63281 13.1211 5.33203 13.2031 5 13.2031ZM13.6016 13.2031C13.2734 13.2031 12.9727 13.1211 12.6992 12.957C12.4258 12.7969 12.207 12.5801 12.043 12.3066C11.8828 12.0332 11.8027 11.7305 11.8027 11.3984C11.8027 11.0664 11.8828 10.7637 12.043 10.4902C12.207 10.2168 12.4258 10 12.6992 9.83984C12.9727 9.67969 13.2734 9.59961 13.6016 9.59961C13.9375 9.59961 14.2402 9.67969 14.5098 9.83984C14.7793 10 14.9961 10.2168 15.1602 10.4902C15.3242 10.7637 15.4062 11.0664 15.4062 11.3984C15.4062 11.7344 15.3242 12.0391 15.1602 12.3125C15 12.5859 14.7832 12.8027 14.5098 12.9629C14.2402 13.123 13.9375 13.2031 13.6016 13.2031Z" fill="white"/>
</svg>
