<svg width="22" height="22" viewBox="0 0 22 22" fill="none" xmlns="http://www.w3.org/2000/svg">
<path d="M10.9917 21.8145C9.80745 21.8145 8.67578 21.6291 7.59668 21.2583C6.52311 20.8931 5.53532 20.3784 4.6333 19.7144C3.73128 19.0503 2.94824 18.2673 2.28418 17.3652C1.62012 16.4632 1.1027 15.4727 0.731934 14.3936C0.366699 13.3145 0.184082 12.1855 0.184082 11.0068C0.184082 9.82259 0.366699 8.69368 0.731934 7.62012C1.09717 6.54102 1.61182 5.55046 2.27588 4.64844C2.94548 3.74642 3.72852 2.96338 4.625 2.29932C5.52702 1.62972 6.51481 1.1123 7.58838 0.74707C8.66748 0.376302 9.79915 0.190918 10.9834 0.190918C12.1676 0.190918 13.2993 0.376302 14.3784 0.74707C15.4575 1.1123 16.4481 1.62972 17.3501 2.29932C18.2521 2.96338 19.0352 3.74642 19.6992 4.64844C20.3688 5.55046 20.8862 6.54102 21.2515 7.62012C21.6222 8.69368 21.8076 9.82259 21.8076 11.0068C21.8076 12.1855 21.6222 13.3145 21.2515 14.3936C20.8862 15.4727 20.3688 16.4632 19.6992 17.3652C19.0352 18.2673 18.2521 19.0503 17.3501 19.7144C16.4481 20.3784 15.4575 20.8931 14.3784 21.2583C13.3049 21.6291 12.1759 21.8145 10.9917 21.8145ZM10.9917 20.2705C12.021 20.2705 12.9977 20.1128 13.9219 19.7974C14.8516 19.4875 15.701 19.0503 16.4702 18.4858C17.245 17.9214 17.9146 17.2546 18.479 16.4854C19.0435 15.7106 19.4806 14.8612 19.7905 13.937C20.1004 13.0073 20.2554 12.0306 20.2554 11.0068C20.2554 9.97754 20.1004 9.00081 19.7905 8.07666C19.4806 7.14697 19.0407 6.29753 18.4707 5.52832C17.9062 4.75358 17.2367 4.08398 16.4619 3.51953C15.6927 2.95508 14.8433 2.5179 13.9136 2.20801C12.9894 1.89811 12.0127 1.74316 10.9834 1.74316C9.95964 1.74316 8.98291 1.89811 8.05322 2.20801C7.12907 2.5179 6.28239 2.95508 5.51318 3.51953C4.74398 4.08398 4.07715 4.75358 3.5127 5.52832C2.94824 6.29753 2.51107 7.14697 2.20117 8.07666C1.89128 9.00081 1.73633 9.97754 1.73633 11.0068C1.73633 12.0306 1.89128 13.0073 2.20117 13.937C2.51107 14.8612 2.94824 15.7106 3.5127 16.4854C4.08268 17.2546 4.75228 17.9214 5.52148 18.4858C6.29069 19.0503 7.13737 19.4875 8.06152 19.7974C8.99121 20.1128 9.96794 20.2705 10.9917 20.2705Z" fill="black"/>
</svg>
