<svg width="18" height="17" viewBox="0 0 18 17" fill="none" xmlns="http://www.w3.org/2000/svg">
<path d="M9 16.5078C4.53125 16.5078 0.851562 12.8281 0.851562 8.35938C0.851562 3.89844 4.53125 0.210938 8.99219 0.210938C13.4609 0.210938 17.1484 3.89844 17.1484 8.35938C17.1484 12.8281 13.4688 16.5078 9 16.5078ZM6.66406 12.1016C7.01562 12.1016 7.20312 11.9766 7.46875 11.5703L8.96094 9.41406H9.00781L10.4688 11.5703C10.7266 11.9688 10.9219 12.1016 11.2734 12.1016C11.7578 12.1016 12.0938 11.7891 12.0938 11.3359C12.0938 11.125 12.0234 10.9531 11.8672 10.7422L10.0625 8.3125L11.875 5.86719C12.0391 5.65625 12.1094 5.46875 12.1094 5.27344C12.1094 4.83594 11.7734 4.52344 11.3047 4.52344C10.9609 4.52344 10.75 4.65625 10.5156 5.03906L9.08594 7.20312H9.03125L7.5625 5.03906C7.3125 4.64844 7.10938 4.52344 6.75 4.52344C6.28906 4.52344 5.9375 4.85156 5.9375 5.28906C5.9375 5.51562 6 5.67969 6.17969 5.91406L7.92188 8.28125L6.09375 10.7734C5.9375 10.9844 5.875 11.1406 5.875 11.3594C5.875 11.7891 6.21094 12.1016 6.66406 12.1016Z" fill="#4D0000"/>
</svg>
