<svg width="32" height="33" viewBox="0 0 32 33" fill="none" xmlns="http://www.w3.org/2000/svg">
<path d="M16 32.6562C13.8229 32.6562 11.7708 32.2396 9.84375 31.4062C7.92708 30.5729 6.23438 29.4219 4.76562 27.9531C3.29688 26.4844 2.14583 24.7917 1.3125 22.875C0.479167 20.9479 0.0625 18.8958 0.0625 16.7188C0.0625 14.5417 0.479167 12.4948 1.3125 10.5781C2.14583 8.65104 3.29167 6.95312 4.75 5.48438C6.21875 4.01562 7.91146 2.86458 9.82812 2.03125C11.7552 1.19792 13.8073 0.78125 15.9844 0.78125C18.1615 0.78125 20.2135 1.19792 22.1406 2.03125C24.0677 2.86458 25.7656 4.01562 27.2344 5.48438C28.7031 6.95312 29.8542 8.65104 30.6875 10.5781C31.5208 12.4948 31.9375 14.5417 31.9375 16.7188C31.9375 18.8958 31.5208 20.9479 30.6875 22.875C29.8542 24.7917 28.7031 26.4844 27.2344 27.9531C25.7656 29.4219 24.0677 30.5729 22.1406 31.4062C20.224 32.2396 18.1771 32.6562 16 32.6562ZM16 30.2812C17.1875 30.2812 18.3646 30.1198 19.5312 29.7969C20.7083 29.4844 21.8125 29.026 22.8438 28.4219C23.875 27.8281 24.7917 27.1094 25.5938 26.2656C25.0312 25.3698 24.2604 24.6094 23.2812 23.9844C22.3125 23.349 21.2031 22.8698 19.9531 22.5469C18.7135 22.2135 17.3958 22.0469 16 22.0469C14.5833 22.0469 13.25 22.2135 12 22.5469C10.75 22.8802 9.64062 23.3646 8.67188 24C7.71354 24.625 6.95312 25.3802 6.39062 26.2656C7.19271 27.1094 8.10938 27.8281 9.14062 28.4219C10.1823 29.026 11.2865 29.4844 12.4531 29.7969C13.6198 30.1198 14.8021 30.2812 16 30.2812ZM16 19.3906C17 19.401 17.901 19.151 18.7031 18.6406C19.5156 18.1198 20.1615 17.4115 20.6406 16.5156C21.1198 15.6198 21.3594 14.6146 21.3594 13.5C21.3594 12.4479 21.1198 11.4844 20.6406 10.6094C20.1615 9.73438 19.5156 9.03646 18.7031 8.51562C17.8906 7.98438 16.9896 7.71875 16 7.71875C15 7.71875 14.0938 7.98438 13.2812 8.51562C12.4688 9.03646 11.8229 9.73438 11.3438 10.6094C10.8646 11.4844 10.6302 12.4479 10.6406 13.5C10.6406 14.6146 10.875 15.6146 11.3438 16.5C11.8229 17.3854 12.4635 18.0885 13.2656 18.6094C14.0781 19.1198 14.9896 19.3802 16 19.3906Z" fill="#E0E0E0"/>
</svg>
