<svg width="14" height="15" viewBox="0 0 14 15" fill="none" xmlns="http://www.w3.org/2000/svg">
<path d="M1.39844 14.5547H11.7891C12.2266 14.5547 12.5703 14.4557 12.8203 14.2578C13.0703 14.0651 13.1953 13.7943 13.1953 13.4453C13.1953 12.9505 13.0417 12.4245 12.7344 11.8672C12.4271 11.3099 11.9844 10.7917 11.4062 10.3125C10.8333 9.82812 10.1406 9.4349 9.32812 9.13281C8.51562 8.82552 7.60156 8.67188 6.58594 8.67188C5.57552 8.67188 4.66406 8.82552 3.85156 9.13281C3.03906 9.4349 2.34375 9.82812 1.76562 10.3125C1.19271 10.7917 0.752604 11.3099 0.445312 11.8672C0.143229 12.4245 -0.0078125 12.9505 -0.0078125 13.4453C-0.0078125 13.7943 0.117188 14.0651 0.367188 14.2578C0.617188 14.4557 0.960938 14.5547 1.39844 14.5547ZM6.59375 7.28906C7.16146 7.28906 7.6849 7.13542 8.16406 6.82812C8.64323 6.52083 9.02604 6.10677 9.3125 5.58594C9.60417 5.0599 9.75 4.46875 9.75 3.8125C9.75 3.17708 9.60417 2.60417 9.3125 2.09375C9.02604 1.57812 8.64323 1.17188 8.16406 0.875C7.6849 0.578125 7.16146 0.429688 6.59375 0.429688C6.03125 0.429688 5.51042 0.580729 5.03125 0.882812C4.55208 1.1849 4.16667 1.59375 3.875 2.10938C3.58854 2.61979 3.44531 3.19271 3.44531 3.82812C3.44531 4.47917 3.58854 5.0651 3.875 5.58594C4.16667 6.10677 4.54948 6.52083 5.02344 6.82812C5.5026 7.13542 6.02604 7.28906 6.59375 7.28906Z" fill="white"/>
</svg>
