<svg width="16" height="12" viewBox="0 0 16 12" fill="none" xmlns="http://www.w3.org/2000/svg">
<path d="M1.83594 11.2539C1.39844 11.2539 1.06445 11.1426 0.833984 10.9199C0.607422 10.7012 0.494141 10.3848 0.494141 9.9707V4.9375C0.494141 4.51953 0.607422 4.20117 0.833984 3.98242C1.06445 3.75977 1.39844 3.64844 1.83594 3.64844H3.5C3.9375 3.64844 4.26953 3.75977 4.49609 3.98242C4.72656 4.20117 4.8418 4.51953 4.8418 4.9375V9.9707C4.8418 10.3848 4.72656 10.7012 4.49609 10.9199C4.26953 11.1426 3.9375 11.2539 3.5 11.2539H1.83594ZM7.25 11.2539C6.8125 11.2539 6.47852 11.1426 6.24805 10.9199C6.02148 10.7012 5.9082 10.3848 5.9082 9.9707V3.22656C5.9082 2.80859 6.02148 2.48828 6.24805 2.26562C6.47852 2.04297 6.8125 1.93164 7.25 1.93164H8.91406C9.35156 1.93164 9.68359 2.04297 9.91016 2.26562C10.1406 2.48828 10.2559 2.80859 10.2559 3.22656V9.9707C10.2559 10.3848 10.1406 10.7012 9.91016 10.9199C9.68359 11.1426 9.35156 11.2539 8.91406 11.2539H7.25ZM12.6641 11.2539C12.2305 11.2539 11.8984 11.1426 11.668 10.9199C11.4414 10.7012 11.3281 10.3848 11.3281 9.9707V1.51562C11.3281 1.10156 11.4414 0.783203 11.668 0.560547C11.8984 0.337891 12.2305 0.226562 12.6641 0.226562H14.3281C14.7695 0.226562 15.1035 0.337891 15.3301 0.560547C15.5605 0.783203 15.6758 1.10156 15.6758 1.51562V9.9707C15.6758 10.3848 15.5605 10.7012 15.3301 10.9199C15.1035 11.1426 14.7695 11.2539 14.3281 11.2539H12.6641Z" fill="white"/>
</svg>
