<svg width="20" height="21" viewBox="0 0 20 21" fill="none" xmlns="http://www.w3.org/2000/svg">
<path d="M7.63332 9.55768C7.54999 9.54935 7.44999 9.54935 7.35832 9.55768C5.37499 9.49102 3.79999 7.86602 3.79999 5.86602C3.79999 3.82435 5.44999 2.16602 7.49999 2.16602C9.54165 2.16602 11.2 3.82435 11.2 5.86602C11.1917 7.86602 9.61665 9.49102 7.63332 9.55768Z" stroke="#0053F5" stroke-width="1.5" stroke-linecap="round" stroke-linejoin="round"/>
<path d="M13.675 3.83398C15.2916 3.83398 16.5917 5.14232 16.5917 6.75065C16.5917 8.32565 15.3417 9.60899 13.7833 9.66732C13.7167 9.65899 13.6417 9.65899 13.5667 9.66732" stroke="#0053F5" stroke-width="1.5" stroke-linecap="round" stroke-linejoin="round"/>
<path d="M3.46666 12.634C1.45 13.984 1.45 16.184 3.46666 17.5257C5.75833 19.059 9.51666 19.059 11.8083 17.5257C13.825 16.1757 13.825 13.9757 11.8083 12.634C9.525 11.109 5.76666 11.109 3.46666 12.634Z" stroke="#0053F5" stroke-width="1.5" stroke-linecap="round" stroke-linejoin="round"/>
<path d="M15.2833 17.166C15.8833 17.041 16.45 16.7993 16.9167 16.441C18.2167 15.466 18.2167 13.8577 16.9167 12.8827C16.4583 12.5327 15.9 12.2993 15.3083 12.166" stroke="#0053F5" stroke-width="1.5" stroke-linecap="round" stroke-linejoin="round"/>
</svg>
