<svg width="14" height="15" viewBox="0 0 14 15" fill="none" xmlns="http://www.w3.org/2000/svg">
<path d="M1.39844 14.4219C0.960938 14.4219 0.617188 14.3229 0.367188 14.125C0.117188 13.9271 -0.0078125 13.6562 -0.0078125 13.3125C-0.0078125 12.8073 0.143229 12.2786 0.445312 11.7266C0.752604 11.1745 1.19271 10.6562 1.76562 10.1719C2.34375 9.6875 3.03906 9.29427 3.85156 8.99219C4.66406 8.6901 5.57552 8.53906 6.58594 8.53906C7.60156 8.53906 8.51562 8.6901 9.32812 8.99219C10.1406 9.29427 10.8333 9.6875 11.4062 10.1719C11.9844 10.6562 12.4271 11.1745 12.7344 11.7266C13.0417 12.2786 13.1953 12.8073 13.1953 13.3125C13.1953 13.6562 13.0703 13.9271 12.8203 14.125C12.5703 14.3229 12.2266 14.4219 11.7891 14.4219H1.39844ZM6.59375 7.14844C6.02604 7.14844 5.5026 6.99479 5.02344 6.6875C4.54948 6.38021 4.16667 5.96615 3.875 5.44531C3.58854 4.92448 3.44531 4.34115 3.44531 3.69531C3.44531 3.0599 3.58854 2.48698 3.875 1.97656C4.16667 1.46094 4.55208 1.05208 5.03125 0.75C5.51042 0.447917 6.03125 0.296875 6.59375 0.296875C7.16146 0.296875 7.6849 0.445312 8.16406 0.742188C8.64323 1.03906 9.02604 1.44531 9.3125 1.96094C9.60417 2.47135 9.75 3.04427 9.75 3.67969C9.75 4.33073 9.60417 4.91927 9.3125 5.44531C9.02604 5.96615 8.64323 6.38021 8.16406 6.6875C7.6849 6.99479 7.16146 7.14844 6.59375 7.14844Z" fill="#D7F31E"/>
</svg>
