<svg width="23" height="12" viewBox="0 0 23 12" fill="none" xmlns="http://www.w3.org/2000/svg">
<path d="M7.92969 11.0664C7.44922 11.0664 7.11328 10.9941 6.92188 10.8496C6.73047 10.709 6.63477 10.5039 6.63477 10.2344C6.63477 9.85547 6.74805 9.45898 6.97461 9.04492C7.20508 8.63086 7.53516 8.24219 7.96484 7.87891C8.39844 7.51562 8.91992 7.2207 9.5293 6.99414C10.1387 6.76758 10.8223 6.6543 11.5801 6.6543C12.3418 6.6543 13.0273 6.76758 13.6367 6.99414C14.2461 7.2207 14.7656 7.51562 15.1953 7.87891C15.6289 8.24219 15.959 8.63086 16.1855 9.04492C16.416 9.45898 16.5312 9.85547 16.5312 10.2344C16.5312 10.5039 16.4355 10.709 16.2441 10.8496C16.0527 10.9941 15.7148 11.0664 15.2305 11.0664H7.92969ZM11.5859 5.61133C11.1602 5.61133 10.7676 5.49609 10.4082 5.26562C10.0527 5.03516 9.76562 4.72461 9.54688 4.33398C9.33203 3.94336 9.22266 3.50586 9.21875 3.02148C9.21875 2.54492 9.32812 2.11523 9.54688 1.73242C9.76562 1.3457 10.0527 1.03906 10.4082 0.8125C10.7676 0.585938 11.1602 0.472656 11.5859 0.472656C12.0117 0.472656 12.4023 0.583984 12.7578 0.806641C13.1172 1.0293 13.4043 1.33398 13.6191 1.7207C13.8379 2.10352 13.9473 2.5332 13.9473 3.00977C13.9473 3.49805 13.8379 3.93945 13.6191 4.33398C13.4043 4.72461 13.1172 5.03516 12.7578 5.26562C12.4023 5.49609 12.0117 5.61133 11.5859 5.61133ZM1.57812 11.0664C1.18359 11.0664 0.904297 10.9863 0.740234 10.8262C0.576172 10.6699 0.494141 10.4473 0.494141 10.1582C0.494141 9.75977 0.595703 9.35547 0.798828 8.94531C1.00195 8.53125 1.29102 8.15039 1.66602 7.80273C2.04492 7.45508 2.49805 7.17383 3.02539 6.95898C3.55664 6.74414 4.15039 6.63672 4.80664 6.63672C5.33789 6.63672 5.8125 6.70703 6.23047 6.84766C6.65234 6.98438 7.02539 7.15625 7.34961 7.36328C7.01758 7.625 6.73047 7.92188 6.48828 8.25391C6.24609 8.58203 6.05859 8.91992 5.92578 9.26758C5.79688 9.61133 5.73242 9.93945 5.73242 10.252C5.73242 10.5684 5.81055 10.8398 5.9668 11.0664H1.57812ZM4.80664 5.74609C4.43555 5.74609 4.09375 5.64648 3.78125 5.44727C3.46875 5.24414 3.21875 4.97266 3.03125 4.63281C2.84375 4.28906 2.75 3.9082 2.75 3.49023C2.74609 3.07227 2.83984 2.69727 3.03125 2.36523C3.22266 2.0293 3.47461 1.76367 3.78711 1.56836C4.09961 1.36914 4.43945 1.26953 4.80664 1.26953C5.17383 1.26953 5.51367 1.36719 5.82617 1.5625C6.14258 1.75391 6.39453 2.01758 6.58203 2.35352C6.76953 2.68555 6.86328 3.06055 6.86328 3.47852C6.86328 3.9043 6.76953 4.28906 6.58203 4.63281C6.39453 4.97266 6.14453 5.24414 5.83203 5.44727C5.51953 5.64648 5.17773 5.74609 4.80664 5.74609ZM21.582 11.0664H17.1875C17.3438 10.8398 17.4219 10.5684 17.4219 10.252C17.4258 9.93945 17.3613 9.61133 17.2285 9.26758C17.0996 8.91992 16.9141 8.58203 16.6719 8.25391C16.4297 7.92188 16.1426 7.625 15.8105 7.36328C16.1309 7.15625 16.502 6.98438 16.9238 6.84766C17.3457 6.70703 17.8223 6.63672 18.3535 6.63672C19.0098 6.63672 19.6016 6.74414 20.1289 6.95898C20.6602 7.17383 21.1133 7.45508 21.4883 7.80273C21.8672 8.15039 22.1582 8.53125 22.3613 8.94531C22.5645 9.35547 22.666 9.75977 22.666 10.1582C22.666 10.4473 22.584 10.6699 22.4199 10.8262C22.2559 10.9863 21.9766 11.0664 21.582 11.0664ZM18.3477 5.74609C17.9805 5.74609 17.6406 5.64648 17.3281 5.44727C17.0156 5.24414 16.7637 4.97266 16.5723 4.63281C16.3848 4.28906 16.291 3.9043 16.291 3.47852C16.291 3.06055 16.3848 2.68555 16.5723 2.35352C16.7637 2.01758 17.0156 1.75391 17.3281 1.5625C17.6445 1.36719 17.9844 1.26953 18.3477 1.26953C18.7188 1.26953 19.0605 1.36914 19.373 1.56836C19.6855 1.76367 19.9355 2.0293 20.123 2.36523C20.3145 2.69727 20.4102 3.07227 20.4102 3.49023C20.4102 3.9082 20.3145 4.28906 20.123 4.63281C19.9355 4.97266 19.6855 5.24414 19.373 5.44727C19.0645 5.64648 18.7227 5.74609 18.3477 5.74609Z" fill="white"/>
</svg>
