<svg width="8" height="14" viewBox="0 0 8 14" fill="none" xmlns="http://www.w3.org/2000/svg">
<path d="M7.82324 7.06445C7.82324 6.92318 7.7959 6.79329 7.74121 6.6748C7.68652 6.55632 7.60449 6.44238 7.49512 6.33301L2.23828 1.18555C2.06055 1.01237 1.84408 0.925781 1.58887 0.925781C1.4248 0.925781 1.27214 0.966797 1.13086 1.04883C0.989583 1.13086 0.875651 1.24251 0.789062 1.38379C0.707031 1.52051 0.666016 1.67318 0.666016 1.8418C0.666016 2.09701 0.761719 2.32031 0.953125 2.51172L5.63574 7.06445L0.953125 11.6172C0.761719 11.8132 0.666016 12.0365 0.666016 12.2871C0.666016 12.4603 0.707031 12.6152 0.789062 12.752C0.875651 12.8887 0.989583 12.998 1.13086 13.0801C1.27214 13.1621 1.4248 13.2031 1.58887 13.2031C1.84408 13.2031 2.06055 13.1165 2.23828 12.9434L7.49512 7.7959C7.60905 7.68652 7.69108 7.57259 7.74121 7.4541C7.7959 7.33105 7.82324 7.20117 7.82324 7.06445Z" fill="#BCBCC0"/>
</svg>
