<svg width="18" height="18" viewBox="0 0 18 18" fill="none" xmlns="http://www.w3.org/2000/svg">
<path d="M9 17.4819C7.84342 17.4819 6.75326 17.2606 5.72949 16.8179C4.71126 16.3752 3.81201 15.7637 3.03174 14.9834C2.25146 14.2031 1.63997 13.3039 1.19727 12.2856C0.754557 11.2619 0.533203 10.1717 0.533203 9.01514C0.533203 7.85856 0.754557 6.77116 1.19727 5.75293C1.63997 4.72917 2.2487 3.82715 3.02344 3.04688C3.80371 2.2666 4.70296 1.65511 5.72119 1.2124C6.74495 0.769694 7.83512 0.54834 8.9917 0.54834C10.1483 0.54834 11.2384 0.769694 12.2622 1.2124C13.286 1.65511 14.188 2.2666 14.9683 3.04688C15.7485 3.82715 16.36 4.72917 16.8027 5.75293C17.2454 6.77116 17.4668 7.85856 17.4668 9.01514C17.4668 10.1717 17.2454 11.2619 16.8027 12.2856C16.36 13.3039 15.7485 14.2031 14.9683 14.9834C14.188 15.7637 13.286 16.3752 12.2622 16.8179C11.244 17.2606 10.1566 17.4819 9 17.4819ZM6.9165 11.0239C7.42008 11.522 7.9458 11.9647 8.49365 12.3521C9.0415 12.7339 9.58659 13.0244 10.1289 13.2236C10.6712 13.4173 11.1859 13.4893 11.6729 13.4395C12.1598 13.3841 12.5915 13.1683 12.9678 12.792C12.9954 12.7643 13.0203 12.7367 13.0425 12.709C13.0646 12.6813 13.0868 12.6536 13.1089 12.626C13.3026 12.4046 13.4132 12.1639 13.4409 11.9038C13.4686 11.6437 13.3579 11.4196 13.1089 11.2314C12.9761 11.1374 12.835 11.0405 12.6855 10.9409C12.5417 10.8358 12.3812 10.7196 12.2041 10.5923C12.027 10.465 11.8223 10.3211 11.5898 10.1606C11.3353 9.98356 11.1167 9.91162 10.9341 9.94482C10.7515 9.97249 10.5633 10.0832 10.3696 10.2769L10.0376 10.6172C9.98779 10.6615 9.92415 10.6836 9.84668 10.6836C9.77474 10.6781 9.70833 10.6587 9.64746 10.6255C9.49805 10.5369 9.30713 10.3986 9.07471 10.2104C8.84782 10.0223 8.61263 9.80648 8.36914 9.56299C8.13672 9.33057 7.92367 9.09538 7.72998 8.85742C7.5363 8.61947 7.39795 8.42855 7.31494 8.28467C7.28727 8.23486 7.2679 8.17676 7.25684 8.11035C7.2513 8.04395 7.2762 7.98031 7.33154 7.91943L7.66357 7.5708C7.85726 7.36605 7.96794 7.17513 7.99561 6.99805C8.02881 6.81543 7.95687 6.59961 7.77979 6.35059L6.72559 4.85645C6.60384 4.69043 6.46549 4.58805 6.31055 4.54932C6.16113 4.50505 5.99788 4.51335 5.8208 4.57422C5.64372 4.63509 5.4611 4.73747 5.27295 4.88135C5.24528 4.89242 5.22038 4.90902 5.19824 4.93115C5.18164 4.94775 5.16781 4.96159 5.15674 4.97266C4.78044 5.35449 4.56462 5.7889 4.50928 6.27588C4.45394 6.76286 4.52311 7.27751 4.7168 7.81982C4.91602 8.36214 5.20654 8.90723 5.58838 9.45508C5.97575 10.0029 6.41846 10.5259 6.9165 11.0239Z" fill="#333333"/>
</svg>
