<svg width="7" height="11" viewBox="0 0 7 11" fill="none" xmlns="http://www.w3.org/2000/svg">
<path d="M0.761857 10.2676C0.761857 10.0465 0.833253 9.86919 0.976044 9.73561C1.11883 9.60203 1.31229 9.53524 1.55642 9.53524H3.08336V5.29296H1.74297C1.50806 5.29296 1.3169 5.22617 1.1695 5.0926C1.02671 4.95902 0.953013 4.77938 0.948407 4.55368C0.948407 4.33258 1.0198 4.15524 1.16259 4.02166C1.30999 3.88808 1.50345 3.8213 1.74297 3.8213H3.91247C4.14278 3.8213 4.32703 3.89039 4.46521 4.02857C4.608 4.16676 4.6794 4.35561 4.6794 4.59513V9.53524H5.88852C6.13264 9.53524 6.3261 9.60203 6.46889 9.73561C6.61168 9.86919 6.68078 10.0465 6.67617 10.2676C6.67617 10.4933 6.60477 10.673 6.46198 10.8065C6.31919 10.9355 6.12804 11 5.88852 11H1.55642C1.31229 11 1.11883 10.9355 0.976044 10.8065C0.833253 10.673 0.761857 10.4933 0.761857 10.2676ZM2.53062 1.18196C2.53062 0.868745 2.63657 0.606194 2.84845 0.39431C3.06494 0.17782 3.32749 0.0695756 3.6361 0.0695756C3.94472 0.0695756 4.20496 0.17782 4.41685 0.39431C4.63334 0.606194 4.74158 0.868745 4.74158 1.18196C4.74158 1.49058 4.63334 1.75313 4.41685 1.96962C4.20496 2.18611 3.94472 2.29435 3.6361 2.29435C3.32749 2.29435 3.06494 2.18611 2.84845 1.96962C2.63657 1.75313 2.53062 1.49058 2.53062 1.18196Z" fill="#D7F31E"/>
</svg>
