<svg width="15" height="14" viewBox="0 0 15 14" fill="none" xmlns="http://www.w3.org/2000/svg">
<path d="M2.98535 13.4561C2.24707 13.4561 1.6888 13.2669 1.31055 12.8887C0.932292 12.515 0.743164 11.9635 0.743164 11.2344V2.91504C0.743164 2.18132 0.932292 1.6276 1.31055 1.25391C1.6888 0.880208 2.24707 0.693359 2.98535 0.693359H12.3916C13.1344 0.693359 13.6927 0.880208 14.0664 1.25391C14.4447 1.6276 14.6338 2.18132 14.6338 2.91504V11.2344C14.6338 11.9635 14.4447 12.515 14.0664 12.8887C13.6927 13.2669 13.1344 13.4561 12.3916 13.4561H2.98535ZM2.97168 12.1094H12.3984C12.6855 12.1094 12.9043 12.0365 13.0547 11.8906C13.2096 11.7402 13.2871 11.5169 13.2871 11.2207V4.9043C13.2871 4.60807 13.2096 4.38477 13.0547 4.23438C12.9043 4.08398 12.6855 4.00879 12.3984 4.00879H2.97168C2.68457 4.00879 2.46582 4.08398 2.31543 4.23438C2.16504 4.38477 2.08984 4.60807 2.08984 4.9043V11.2207C2.08984 11.5169 2.16504 11.7402 2.31543 11.8906C2.46582 12.0365 2.68457 12.1094 2.97168 12.1094ZM6.37598 6.3877C6.25293 6.3877 6.16634 6.36491 6.11621 6.31934C6.07064 6.26921 6.04785 6.1849 6.04785 6.06641V5.66309C6.04785 5.54004 6.07064 5.45801 6.11621 5.41699C6.16634 5.37142 6.25293 5.34863 6.37598 5.34863H6.7793C6.89779 5.34863 6.9821 5.37142 7.03223 5.41699C7.08236 5.45801 7.10742 5.54004 7.10742 5.66309V6.06641C7.10742 6.1849 7.08236 6.26921 7.03223 6.31934C6.9821 6.36491 6.89779 6.3877 6.7793 6.3877H6.37598ZM8.60449 6.3877C8.486 6.3877 8.40169 6.36491 8.35156 6.31934C8.30599 6.26921 8.2832 6.1849 8.2832 6.06641V5.66309C8.2832 5.54004 8.30599 5.45801 8.35156 5.41699C8.40169 5.37142 8.486 5.34863 8.60449 5.34863H9.00781C9.13542 5.34863 9.22201 5.37142 9.26758 5.41699C9.31315 5.45801 9.33594 5.54004 9.33594 5.66309V6.06641C9.33594 6.1849 9.31315 6.26921 9.26758 6.31934C9.22201 6.36491 9.13542 6.3877 9.00781 6.3877H8.60449ZM10.8467 6.3877C10.7236 6.3877 10.637 6.36491 10.5869 6.31934C10.5413 6.26921 10.5186 6.1849 10.5186 6.06641V5.66309C10.5186 5.54004 10.5413 5.45801 10.5869 5.41699C10.637 5.37142 10.7236 5.34863 10.8467 5.34863H11.2432C11.3708 5.34863 11.4574 5.37142 11.5029 5.41699C11.5485 5.45801 11.5713 5.54004 11.5713 5.66309V6.06641C11.5713 6.1849 11.5485 6.26921 11.5029 6.31934C11.4574 6.36491 11.3708 6.3877 11.2432 6.3877H10.8467ZM4.14062 8.58203C4.01758 8.58203 3.93099 8.55924 3.88086 8.51367C3.83529 8.4681 3.8125 8.38607 3.8125 8.26758V7.86426C3.8125 7.74121 3.83529 7.6569 3.88086 7.61133C3.93099 7.56576 4.01758 7.54297 4.14062 7.54297H4.54395C4.66243 7.54297 4.74447 7.56576 4.79004 7.61133C4.84017 7.6569 4.86523 7.74121 4.86523 7.86426V8.26758C4.86523 8.38607 4.84017 8.4681 4.79004 8.51367C4.74447 8.55924 4.66243 8.58203 4.54395 8.58203H4.14062ZM6.37598 8.58203C6.25293 8.58203 6.16634 8.55924 6.11621 8.51367C6.07064 8.4681 6.04785 8.38607 6.04785 8.26758V7.86426C6.04785 7.74121 6.07064 7.6569 6.11621 7.61133C6.16634 7.56576 6.25293 7.54297 6.37598 7.54297H6.7793C6.89779 7.54297 6.9821 7.56576 7.03223 7.61133C7.08236 7.6569 7.10742 7.74121 7.10742 7.86426V8.26758C7.10742 8.38607 7.08236 8.4681 7.03223 8.51367C6.9821 8.55924 6.89779 8.58203 6.7793 8.58203H6.37598ZM8.60449 8.58203C8.486 8.58203 8.40169 8.55924 8.35156 8.51367C8.30599 8.4681 8.2832 8.38607 8.2832 8.26758V7.86426C8.2832 7.74121 8.30599 7.6569 8.35156 7.61133C8.40169 7.56576 8.486 7.54297 8.60449 7.54297H9.00781C9.13542 7.54297 9.22201 7.56576 9.26758 7.61133C9.31315 7.6569 9.33594 7.74121 9.33594 7.86426V8.26758C9.33594 8.38607 9.31315 8.4681 9.26758 8.51367C9.22201 8.55924 9.13542 8.58203 9.00781 8.58203H8.60449ZM10.8467 8.58203C10.7236 8.58203 10.637 8.55924 10.5869 8.51367C10.5413 8.4681 10.5186 8.38607 10.5186 8.26758V7.86426C10.5186 7.74121 10.5413 7.6569 10.5869 7.61133C10.637 7.56576 10.7236 7.54297 10.8467 7.54297H11.2432C11.3708 7.54297 11.4574 7.56576 11.5029 7.61133C11.5485 7.6569 11.5713 7.74121 11.5713 7.86426V8.26758C11.5713 8.38607 11.5485 8.4681 11.5029 8.51367C11.4574 8.55924 11.3708 8.58203 11.2432 8.58203H10.8467ZM4.14062 10.7832C4.01758 10.7832 3.93099 10.7627 3.88086 10.7217C3.83529 10.6761 3.8125 10.5895 3.8125 10.4619V10.0654C3.8125 9.94238 3.83529 9.85807 3.88086 9.8125C3.93099 9.76693 4.01758 9.74414 4.14062 9.74414H4.54395C4.66243 9.74414 4.74447 9.76693 4.79004 9.8125C4.84017 9.85807 4.86523 9.94238 4.86523 10.0654V10.4619C4.86523 10.5895 4.84017 10.6761 4.79004 10.7217C4.74447 10.7627 4.66243 10.7832 4.54395 10.7832H4.14062ZM6.37598 10.7832C6.25293 10.7832 6.16634 10.7627 6.11621 10.7217C6.07064 10.6761 6.04785 10.5895 6.04785 10.4619V10.0654C6.04785 9.94238 6.07064 9.85807 6.11621 9.8125C6.16634 9.76693 6.25293 9.74414 6.37598 9.74414H6.7793C6.89779 9.74414 6.9821 9.76693 7.03223 9.8125C7.08236 9.85807 7.10742 9.94238 7.10742 10.0654V10.4619C7.10742 10.5895 7.08236 10.6761 7.03223 10.7217C6.9821 10.7627 6.89779 10.7832 6.7793 10.7832H6.37598ZM8.60449 10.7832C8.486 10.7832 8.40169 10.7627 8.35156 10.7217C8.30599 10.6761 8.2832 10.5895 8.2832 10.4619V10.0654C8.2832 9.94238 8.30599 9.85807 8.35156 9.8125C8.40169 9.76693 8.486 9.74414 8.60449 9.74414H9.00781C9.13542 9.74414 9.22201 9.76693 9.26758 9.8125C9.31315 9.85807 9.33594 9.94238 9.33594 10.0654V10.4619C9.33594 10.5895 9.31315 10.6761 9.26758 10.7217C9.22201 10.7627 9.13542 10.7832 9.00781 10.7832H8.60449Z" fill="white"/>
</svg>
