<svg width="17" height="12" viewBox="0 0 17 12" fill="none" xmlns="http://www.w3.org/2000/svg">
<path d="M8.04688 11.1133C7.53125 11.1133 7.17188 11.0312 6.96875 10.8672C6.76953 10.707 6.66992 10.4824 6.66992 10.1934C6.66992 9.81836 6.78516 9.42578 7.01562 9.01562C7.25 8.60156 7.58398 8.21484 8.01758 7.85547C8.45508 7.49609 8.98047 7.20508 9.59375 6.98242C10.207 6.75586 10.8926 6.64258 11.6504 6.64258C12.4121 6.64258 13.0996 6.75586 13.7129 6.98242C14.3262 7.20508 14.8496 7.49609 15.2832 7.85547C15.7207 8.21484 16.0547 8.60156 16.2852 9.01562C16.5195 9.42578 16.6367 9.81836 16.6367 10.1934C16.6367 10.4824 16.5352 10.707 16.332 10.8672C16.1328 11.0312 15.7734 11.1133 15.2539 11.1133H8.04688ZM11.6562 5.61719C11.2148 5.61719 10.8125 5.5 10.4492 5.26562C10.0859 5.03125 9.79492 4.7168 9.57617 4.32227C9.36133 3.92773 9.25391 3.48633 9.25391 2.99805C9.25391 2.52148 9.36328 2.08789 9.58203 1.69727C9.80078 1.30664 10.0918 0.996094 10.4551 0.765625C10.8184 0.535156 11.2188 0.419922 11.6562 0.419922C12.0938 0.419922 12.4922 0.535156 12.8516 0.765625C13.2148 0.992188 13.5059 1.30078 13.7246 1.69141C13.9434 2.08203 14.0527 2.51367 14.0527 2.98633C14.0527 3.47852 13.9434 3.92383 13.7246 4.32227C13.5098 4.7168 13.2207 5.03125 12.8574 5.26562C12.4941 5.5 12.0938 5.61719 11.6562 5.61719ZM1.66602 11.1133C1.23242 11.1133 0.927734 11.0195 0.751953 10.832C0.580078 10.6484 0.494141 10.3906 0.494141 10.0586C0.494141 9.67578 0.597656 9.2832 0.804688 8.88086C1.01562 8.47852 1.3125 8.10742 1.69531 7.76758C2.08203 7.42773 2.54102 7.15234 3.07227 6.94141C3.60352 6.73047 4.19141 6.625 4.83594 6.625C5.33594 6.625 5.79297 6.68945 6.20703 6.81836C6.625 6.94727 6.99023 7.10938 7.30273 7.30469C6.95117 7.58984 6.65234 7.9043 6.40625 8.24805C6.16406 8.58789 5.98047 8.93555 5.85547 9.29102C5.73438 9.64258 5.67969 9.97656 5.69141 10.293C5.70703 10.6094 5.79492 10.8828 5.95508 11.1133H1.66602ZM4.83594 5.74609C4.45312 5.74609 4.10352 5.64453 3.78711 5.44141C3.4707 5.23828 3.21875 4.96484 3.03125 4.62109C2.84375 4.27344 2.75 3.88867 2.75 3.4668C2.75 3.05273 2.84375 2.67578 3.03125 2.33594C3.22266 1.99609 3.47656 1.72461 3.79297 1.52148C4.10938 1.31836 4.45703 1.2168 4.83594 1.2168C5.21484 1.2168 5.5625 1.31836 5.87891 1.52148C6.19531 1.7207 6.44727 1.99023 6.63477 2.33008C6.82617 2.66602 6.92188 3.04297 6.92188 3.46094C6.92188 3.88672 6.82812 4.27344 6.64062 4.62109C6.45312 4.96484 6.20117 5.23828 5.88477 5.44141C5.56836 5.64453 5.21875 5.74609 4.83594 5.74609Z" fill="#D7F31E"/>
</svg>
