<svg width="16" height="17" viewBox="0 0 16 17" fill="none" xmlns="http://www.w3.org/2000/svg">
<path d="M12.3984 10.9688C11.3672 10.9688 10.4349 10.8151 9.60156 10.5078C8.76823 10.1953 8.05469 9.75 7.46094 9.17188C6.8724 8.58854 6.41927 7.88542 6.10156 7.0625C5.78906 6.23438 5.63281 5.30469 5.63281 4.27344C5.63281 3.97656 5.65365 3.65885 5.69531 3.32031C5.73698 2.97656 5.79427 2.64844 5.86719 2.33594C5.9401 2.01823 6.02604 1.7526 6.125 1.53906C6.16667 1.4401 6.19531 1.35417 6.21094 1.28125C6.23177 1.20833 6.24219 1.14583 6.24219 1.09375C6.24219 0.973958 6.19792 0.864583 6.10938 0.765625C6.02083 0.661458 5.89583 0.609375 5.73438 0.609375C5.68229 0.609375 5.61198 0.617188 5.52344 0.632812C5.4349 0.648438 5.34115 0.674479 5.24219 0.710938C4.27344 1.09635 3.42448 1.67188 2.69531 2.4375C1.97135 3.19792 1.40625 4.07812 1 5.07812C0.598958 6.07812 0.398438 7.1224 0.398438 8.21094C0.398438 9.35677 0.601562 10.4089 1.00781 11.3672C1.41406 12.3255 1.97917 13.1589 2.70312 13.8672C3.43229 14.5703 4.28646 15.1146 5.26562 15.5C6.24479 15.8906 7.30208 16.0859 8.4375 16.0859C9.27083 16.0859 10.0677 15.9688 10.8281 15.7344C11.5885 15.5 12.2865 15.1719 12.9219 14.75C13.5625 14.3333 14.1198 13.8464 14.5938 13.2891C15.0677 12.7318 15.4297 12.1276 15.6797 11.4766C15.7266 11.3724 15.7552 11.276 15.7656 11.1875C15.7812 11.0938 15.7891 11.0208 15.7891 10.9688C15.7891 10.8125 15.7396 10.6901 15.6406 10.6016C15.5417 10.5078 15.4297 10.4609 15.3047 10.4609C15.1849 10.4609 15.0417 10.4948 14.875 10.5625C14.5833 10.6667 14.2135 10.7604 13.7656 10.8438C13.3229 10.9271 12.8672 10.9688 12.3984 10.9688Z" fill="white"/>
</svg>
