<svg width="16" height="17" viewBox="0 0 16 17" fill="none" xmlns="http://www.w3.org/2000/svg">
<path d="M2.15527 16.5996C1.66309 16.5996 1.27637 16.4883 0.995117 16.2656C0.713867 16.043 0.573242 15.7383 0.573242 15.3516C0.573242 14.7832 0.743164 14.1885 1.08301 13.5674C1.42871 12.9463 1.92383 12.3633 2.56836 11.8184C3.21875 11.2734 4.00098 10.8311 4.91504 10.4912C5.8291 10.1514 6.85449 9.98145 7.99121 9.98145C9.13379 9.98145 10.1621 10.1514 11.0762 10.4912C11.9902 10.8311 12.7695 11.2734 13.4141 11.8184C14.0645 12.3633 14.5625 12.9463 14.9082 13.5674C15.2539 14.1885 15.4268 14.7832 15.4268 15.3516C15.4268 15.7383 15.2861 16.043 15.0049 16.2656C14.7236 16.4883 14.3369 16.5996 13.8447 16.5996H2.15527ZM8 8.41699C7.36133 8.41699 6.77246 8.24414 6.2334 7.89844C5.7002 7.55273 5.26953 7.08691 4.94141 6.50098C4.61914 5.91504 4.45801 5.25879 4.45801 4.53223C4.45801 3.81738 4.61914 3.17285 4.94141 2.59863C5.26953 2.01855 5.70312 1.55859 6.24219 1.21875C6.78125 0.878906 7.36719 0.708984 8 0.708984C8.63867 0.708984 9.22754 0.875977 9.7666 1.20996C10.3057 1.54395 10.7363 2.00098 11.0586 2.58105C11.3867 3.15527 11.5508 3.7998 11.5508 4.51465C11.5508 5.24707 11.3867 5.90918 11.0586 6.50098C10.7363 7.08691 10.3057 7.55273 9.7666 7.89844C9.22754 8.24414 8.63867 8.41699 8 8.41699Z" fill="#999999"/>
</svg>
