<svg width="15" height="16" viewBox="0 0 15 16" fill="none" xmlns="http://www.w3.org/2000/svg">
<path d="M1.92261 12.5716H13.3229C13.8019 12.5716 14.1865 12.4311 14.4767 12.1502C14.7715 11.8692 14.9189 11.503 14.9189 11.0516C14.9189 10.7522 14.8636 10.4804 14.7531 10.2363C14.6471 9.98757 14.4997 9.76187 14.3109 9.5592C14.1266 9.35192 13.9171 9.16076 13.6821 8.98573C13.4795 8.83833 13.3252 8.62875 13.2192 8.35699C13.1179 8.08522 13.035 7.76049 12.9705 7.38278C12.9106 7.00508 12.8415 6.58592 12.7632 6.1253C12.6573 5.44359 12.4845 4.81485 12.245 4.23908C12.0055 3.66331 11.6946 3.17045 11.3123 2.7605C10.93 2.35055 10.474 2.05115 9.94424 1.8623C9.75078 1.38786 9.44447 1.00555 9.02531 0.715364C8.60615 0.425176 8.13863 0.280081 7.62274 0.280081C7.11145 0.280081 6.64393 0.425176 6.22016 0.715364C5.801 1.00555 5.49699 1.38786 5.30814 1.8623C4.77843 2.05115 4.32242 2.35055 3.94011 2.7605C3.5578 3.17045 3.24688 3.66331 3.00736 4.23908C2.76784 4.81485 2.59511 5.44359 2.48917 6.1253C2.41086 6.58592 2.33947 7.00508 2.27498 7.38278C2.2151 7.76049 2.13219 8.08522 2.02625 8.35699C1.92491 8.62875 1.77291 8.83833 1.57024 8.98573C1.33532 9.16076 1.12344 9.35192 0.934588 9.5592C0.750342 9.76187 0.602945 9.98757 0.492397 10.2363C0.386455 10.4804 0.333484 10.7522 0.333484 11.0516C0.333484 11.503 0.478578 11.8692 0.768767 12.1502C1.06356 12.4311 1.44818 12.5716 1.92261 12.5716ZM7.62274 15.7568C8.10178 15.7568 8.53015 15.6601 8.90786 15.4666C9.28556 15.2777 9.58727 15.0221 9.81297 14.6997C10.0387 14.3772 10.1653 14.0203 10.193 13.6287H5.05941C5.08244 14.0203 5.2068 14.3772 5.43251 14.6997C5.66281 15.0221 5.96452 15.2777 6.33762 15.4666C6.71532 15.6601 7.1437 15.7568 7.62274 15.7568Z" fill="white"/>
</svg>
