<svg width="24" height="24" viewBox="0 0 24 24" fill="none" xmlns="http://www.w3.org/2000/svg">
<path d="M4.09343 24C1.36882 24 0 22.6573 0 19.9587V4.04128C0 1.34275 1.36882 0 4.09343 0H19.9066C22.6442 0 24 1.35578 24 4.04128V19.9587C24 22.6442 22.6442 24 19.9066 24H4.09343ZM10.5464 18.3552C10.9897 18.3552 11.3677 18.1467 11.6415 17.7165L17.7686 8.06953C17.9381 7.79576 18.0945 7.49593 18.0945 7.20913C18.0945 6.59642 17.56 6.20532 16.9995 6.20532C16.6475 6.20532 16.3085 6.41391 16.0608 6.805L10.4943 15.748L7.84791 12.3324C7.522 11.9022 7.2352 11.7849 6.87018 11.7849C6.2705 11.7849 5.81423 12.2672 5.81423 12.8539C5.81423 13.1537 5.93156 13.4405 6.1271 13.7012L9.39924 17.7165C9.73819 18.1727 10.1032 18.3552 10.5464 18.3552Z" fill="#0053F5"/>
</svg>
