<svg width="24" height="17" viewBox="0 0 24 17" fill="none" xmlns="http://www.w3.org/2000/svg">
<path d="M15.1094 12.1953C14.7917 12.4818 14.5469 12.8281 14.375 13.2344C14.2031 13.6354 14.1172 14.0677 14.1172 14.5312C14.1172 14.6719 14.1276 14.8099 14.1484 14.9453H9.32031C9.34115 14.8099 9.35156 14.6745 9.35156 14.5391C9.35156 14.0755 9.26302 13.6406 9.08594 13.2344C8.91406 12.8281 8.67448 12.4714 8.36719 12.1641C8.0599 11.8568 7.70312 11.6172 7.29688 11.4453C6.89062 11.2682 6.45833 11.1797 6 11.1797C5.53125 11.1797 5.09375 11.2682 4.6875 11.4453C4.28125 11.6172 3.92448 11.8568 3.61719 12.1641C3.3099 12.4714 3.06771 12.8281 2.89062 13.2344C2.71875 13.6406 2.63281 14.0755 2.63281 14.5391C2.63281 14.6797 2.64323 14.8125 2.66406 14.9375H2.19531C1.71615 14.9375 1.3125 14.8464 0.984375 14.6641C0.661458 14.487 0.414062 14.2266 0.242188 13.8828C0.0755208 13.5391 -0.0078125 13.125 -0.0078125 12.6406V2.3125C-0.0078125 1.5625 0.190104 0.989583 0.585938 0.59375C0.981771 0.197917 1.55469 0 2.30469 0H12.7969C13.5521 0 14.125 0.200521 14.5156 0.601562C14.9115 0.997396 15.1094 1.56771 15.1094 2.3125V12.1953ZM16.2109 4.32031H18.2969C18.7083 4.32031 19.0599 4.3776 19.3516 4.49219C19.6432 4.60156 19.9141 4.79167 20.1641 5.0625L22.8594 8.10938C23.0885 8.36979 23.2422 8.61979 23.3203 8.85938C23.4036 9.09375 23.4453 9.41667 23.4453 9.82812V12.6406C23.4453 13.3698 23.2578 13.9349 22.8828 14.3359C22.5078 14.7422 21.9583 14.9453 21.2344 14.9453H20.8047C20.8255 14.8047 20.8359 14.6667 20.8359 14.5312C20.8359 14.0677 20.7448 13.6328 20.5625 13.2266C20.3854 12.8203 20.1406 12.4635 19.8281 12.1562C19.5208 11.849 19.1615 11.6094 18.75 11.4375C18.3438 11.2604 17.9089 11.1719 17.4453 11.1719C17.2214 11.1719 17.0052 11.1979 16.7969 11.25C16.5885 11.3021 16.3932 11.375 16.2109 11.4688V4.32031ZM18.4141 9.46875H21.7422C21.7318 9.38021 21.7057 9.29948 21.6641 9.22656C21.6224 9.15365 21.5703 9.08333 21.5078 9.01562L19.1875 6.40625C19.0417 6.23958 18.901 6.13281 18.7656 6.08594C18.6354 6.03385 18.4792 6.00781 18.2969 6.00781H17.6562V8.71875C17.6562 8.94792 17.724 9.13021 17.8594 9.26562C18 9.40104 18.1849 9.46875 18.4141 9.46875ZM6 16.9375C5.55208 16.9375 5.14583 16.8281 4.78125 16.6094C4.42188 16.3958 4.13281 16.1068 3.91406 15.7422C3.70052 15.3828 3.59375 14.9818 3.59375 14.5391C3.59375 14.0964 3.70052 13.6927 3.91406 13.3281C4.13281 12.9635 4.42188 12.6745 4.78125 12.4609C5.14583 12.2474 5.55208 12.1406 6 12.1406C6.4375 12.1406 6.83854 12.2474 7.20312 12.4609C7.56771 12.6745 7.85677 12.9635 8.07031 13.3281C8.28906 13.6927 8.39844 14.0964 8.39844 14.5391C8.39844 14.9766 8.28906 15.3776 8.07031 15.7422C7.85677 16.1068 7.56771 16.3958 7.20312 16.6094C6.84375 16.8281 6.44271 16.9375 6 16.9375ZM17.4688 16.9375C17.0312 16.9375 16.6302 16.8281 16.2656 16.6094C15.901 16.3958 15.6094 16.1068 15.3906 15.7422C15.1771 15.3776 15.0703 14.974 15.0703 14.5312C15.0703 14.0885 15.1771 13.6849 15.3906 13.3203C15.6094 12.9557 15.901 12.6667 16.2656 12.4531C16.6302 12.2396 17.0312 12.1328 17.4688 12.1328C17.9167 12.1328 18.3203 12.2396 18.6797 12.4531C19.0391 12.6667 19.3281 12.9557 19.5469 13.3203C19.7656 13.6849 19.875 14.0885 19.875 14.5312C19.875 14.9792 19.7656 15.3854 19.5469 15.75C19.3333 16.1146 19.0443 16.4036 18.6797 16.6172C18.3203 16.8307 17.9167 16.9375 17.4688 16.9375Z" fill="#0053F5"/>
</svg>
