<svg width="48" height="48" viewBox="0 0 48 48" fill="none" xmlns="http://www.w3.org/2000/svg">
<circle cx="24" cy="24" r="24" fill="black"/>
<path d="M19.707 28.373C18.7695 27.4355 17.9264 26.4492 17.1777 25.4141C16.429 24.3789 15.8366 23.347 15.4004 22.3184C14.9642 21.2832 14.7461 20.2969 14.7461 19.3594C14.7461 18.7344 14.8535 18.1484 15.0684 17.6016C15.2897 17.0482 15.638 16.5436 16.1133 16.0879C16.6992 15.5215 17.3275 15.2383 17.998 15.2383C18.2585 15.2383 18.5059 15.2936 18.7402 15.4043C18.9811 15.5085 19.1829 15.6777 19.3457 15.9121L21.4453 18.8711C21.6146 19.099 21.7383 19.3105 21.8164 19.5059C21.8945 19.7012 21.9336 19.8867 21.9336 20.0625C21.9336 20.2839 21.8717 20.4987 21.748 20.707C21.6243 20.9154 21.4551 21.1302 21.2402 21.3516L20.5469 22.0645C20.4492 22.1621 20.4004 22.2826 20.4004 22.4258C20.4004 22.4974 20.4102 22.569 20.4297 22.6406C20.4557 22.7057 20.4818 22.7643 20.5078 22.8164C20.6641 23.1159 20.944 23.5033 21.3477 23.9785C21.7513 24.4538 22.1908 24.9323 22.666 25.4141C23.1478 25.8958 23.6263 26.3385 24.1016 26.7422C24.5768 27.1393 24.9674 27.4193 25.2734 27.582C25.319 27.6016 25.3743 27.6243 25.4395 27.6504C25.5111 27.6764 25.5859 27.6895 25.6641 27.6895C25.8138 27.6895 25.9375 27.6374 26.0352 27.5332L26.7285 26.8496C26.9499 26.6283 27.1647 26.459 27.373 26.3418C27.5814 26.2181 27.7962 26.1562 28.0176 26.1562C28.1934 26.1562 28.3789 26.1953 28.5742 26.2734C28.7695 26.3516 28.9811 26.4688 29.209 26.625L32.207 28.7539C32.4349 28.9167 32.5977 29.112 32.6953 29.3398C32.7995 29.5612 32.8516 29.7956 32.8516 30.043C32.8516 30.375 32.7767 30.7038 32.627 31.0293C32.4772 31.3613 32.2721 31.6706 32.0117 31.957C31.569 32.4453 31.0742 32.8034 30.5273 33.0312C29.9805 33.2591 29.3913 33.373 28.7598 33.373C27.8288 33.373 26.8424 33.1517 25.8008 32.709C24.7591 32.2663 23.7174 31.6673 22.6758 30.9121C21.6341 30.1569 20.6445 29.3105 19.707 28.373Z" fill="#D7F31E"/>
</svg>
