<svg width="48" height="48" viewBox="0 0 48 48" fill="none" xmlns="http://www.w3.org/2000/svg">
<path d="M24.1016 48.0078C20.8359 48.0078 17.7578 47.3828 14.8672 46.1328C11.9922 44.8828 9.45312 43.1562 7.25 40.9531C5.04688 38.75 3.32031 36.2109 2.07031 33.3359C0.820312 30.4453 0.195312 27.3672 0.195312 24.1016C0.195312 20.8359 0.820312 17.7656 2.07031 14.8906C3.32031 12 5.03906 9.45312 7.22656 7.25C9.42969 5.04688 11.9688 3.32031 14.8438 2.07031C17.7344 0.820313 20.8125 0.195312 24.0781 0.195312C27.3438 0.195312 30.4219 0.820313 33.3125 2.07031C36.2031 3.32031 38.75 5.04688 40.9531 7.25C43.1562 9.45312 44.8828 12 46.1328 14.8906C47.3828 17.7656 48.0078 20.8359 48.0078 24.1016C48.0078 27.3672 47.3828 30.4453 46.1328 33.3359C44.8828 36.2109 43.1562 38.75 40.9531 40.9531C38.75 43.1562 36.2031 44.8828 33.3125 46.1328C30.4375 47.3828 27.3672 48.0078 24.1016 48.0078ZM18.2188 29.7734C19.6406 31.1797 21.125 32.4297 22.6719 33.5234C24.2188 34.6016 25.7578 35.4219 27.2891 35.9844C28.8203 36.5312 30.2734 36.7344 31.6484 36.5938C33.0234 36.4375 34.2422 35.8281 35.3047 34.7656C35.3828 34.6875 35.4531 34.6094 35.5156 34.5312C35.5781 34.4531 35.6406 34.375 35.7031 34.2969C36.25 33.6719 36.5625 32.9922 36.6406 32.2578C36.7188 31.5234 36.4062 30.8906 35.7031 30.3594C35.3281 30.0938 34.9297 29.8203 34.5078 29.5391C34.1016 29.2422 33.6484 28.9141 33.1484 28.5547C32.6484 28.1953 32.0703 27.7891 31.4141 27.3359C30.6953 26.8359 30.0781 26.6328 29.5625 26.7266C29.0469 26.8047 28.5156 27.1172 27.9688 27.6641L27.0312 28.625C26.8906 28.75 26.7109 28.8125 26.4922 28.8125C26.2891 28.7969 26.1016 28.7422 25.9297 28.6484C25.5078 28.3984 24.9688 28.0078 24.3125 27.4766C23.6719 26.9453 23.0078 26.3359 22.3203 25.6484C21.6641 24.9922 21.0625 24.3281 20.5156 23.6562C19.9688 22.9844 19.5781 22.4453 19.3438 22.0391C19.2656 21.8984 19.2109 21.7344 19.1797 21.5469C19.1641 21.3594 19.2344 21.1797 19.3906 21.0078L20.3281 20.0234C20.875 19.4453 21.1875 18.9062 21.2656 18.4062C21.3594 17.8906 21.1562 17.2812 20.6562 16.5781L17.6797 12.3594C17.3359 11.8906 16.9453 11.6016 16.5078 11.4922C16.0859 11.3672 15.625 11.3906 15.125 11.5625C14.625 11.7344 14.1094 12.0234 13.5781 12.4297C13.5 12.4609 13.4297 12.5078 13.3672 12.5703C13.3203 12.6172 13.2812 12.6562 13.25 12.6875C12.1875 13.7656 11.5781 14.9922 11.4219 16.3672C11.2656 17.7422 11.4609 19.1953 12.0078 20.7266C12.5703 22.2578 13.3906 23.7969 14.4688 25.3438C15.5625 26.8906 16.8125 28.3672 18.2188 29.7734Z" fill="#2F80ED"/>
</svg>
