<svg width="20" height="20" viewBox="0 0 20 20" fill="none" xmlns="http://www.w3.org/2000/svg">
<path d="M10 11.666H10.8333C11.75 11.666 12.5 10.916 12.5 9.99935V1.66602H5C3.75 1.66602 2.65834 2.35767 2.09167 3.37434" stroke="#0053F5" stroke-width="1.5" stroke-linecap="round" stroke-linejoin="round"/>
<path d="M1.66663 14.166C1.66663 15.5493 2.78329 16.666 4.16663 16.666H4.99996C4.99996 15.7493 5.74996 14.9993 6.66663 14.9993C7.58329 14.9993 8.33329 15.7493 8.33329 16.666H11.6666C11.6666 15.7493 12.4166 14.9993 13.3333 14.9993C14.25 14.9993 15 15.7493 15 16.666H15.8333C17.2166 16.666 18.3333 15.5493 18.3333 14.166V11.666H15.8333C15.375 11.666 15 11.291 15 10.8327V8.33268C15 7.87435 15.375 7.49935 15.8333 7.49935H16.9083L15.4833 5.00769C15.1833 4.49102 14.6333 4.16602 14.0333 4.16602H12.5V9.99935C12.5 10.916 11.75 11.666 10.8333 11.666H9.99996" stroke="#0053F5" stroke-width="1.5" stroke-linecap="round" stroke-linejoin="round"/>
<path d="M6.66667 18.3333C7.58714 18.3333 8.33333 17.5871 8.33333 16.6667C8.33333 15.7462 7.58714 15 6.66667 15C5.74619 15 5 15.7462 5 16.6667C5 17.5871 5.74619 18.3333 6.66667 18.3333Z" stroke="#0053F5" stroke-width="1.5" stroke-linecap="round" stroke-linejoin="round"/>
<path d="M13.3333 18.3333C14.2538 18.3333 15 17.5871 15 16.6667C15 15.7462 14.2538 15 13.3333 15C12.4128 15 11.6666 15.7462 11.6666 16.6667C11.6666 17.5871 12.4128 18.3333 13.3333 18.3333Z" stroke="#0053F5" stroke-width="1.5" stroke-linecap="round" stroke-linejoin="round"/>
<path d="M18.3333 10V11.6667H15.8333C15.375 11.6667 15 11.2917 15 10.8333V8.33333C15 7.875 15.375 7.5 15.8333 7.5H16.9083L18.3333 10Z" stroke="#0053F5" stroke-width="1.5" stroke-linecap="round" stroke-linejoin="round"/>
<path d="M1.66663 6.66602H6.66663" stroke="#0053F5" stroke-width="1.5" stroke-linecap="round" stroke-linejoin="round"/>
<path d="M1.66663 9.16602H4.99996" stroke="#0053F5" stroke-width="1.5" stroke-linecap="round" stroke-linejoin="round"/>
<path d="M1.66663 11.666H3.33329" stroke="#0053F5" stroke-width="1.5" stroke-linecap="round" stroke-linejoin="round"/>
</svg>
