<svg width="27" height="35" viewBox="0 0 27 35" fill="none" xmlns="http://www.w3.org/2000/svg">
<path d="M7.39062 9.79688H19.625C19.9062 9.79688 20.1406 9.69792 20.3281 9.5C20.5156 9.30208 20.6094 9.0625 20.6094 8.78125C20.6094 8.51042 20.5156 8.28125 20.3281 8.09375C20.1406 7.90625 19.9062 7.8125 19.625 7.8125H7.39062C7.09896 7.8125 6.85938 7.90625 6.67188 8.09375C6.48438 8.28125 6.39062 8.51042 6.39062 8.78125C6.39062 9.0625 6.48438 9.30208 6.67188 9.5C6.85938 9.69792 7.09896 9.79688 7.39062 9.79688ZM7.39062 15.4219H19.625C19.9062 15.4219 20.1406 15.3229 20.3281 15.125C20.5156 14.9271 20.6094 14.6875 20.6094 14.4062C20.6094 14.1354 20.5156 13.9062 20.3281 13.7188C20.1406 13.5312 19.9062 13.4375 19.625 13.4375H7.39062C7.09896 13.4375 6.85938 13.5312 6.67188 13.7188C6.48438 13.9062 6.39062 14.1354 6.39062 14.4062C6.39062 14.6875 6.48438 14.9271 6.67188 15.125C6.85938 15.3229 7.09896 15.4219 7.39062 15.4219ZM7.39062 21.0469H13.1719C13.4635 21.0469 13.7031 20.9531 13.8906 20.7656C14.0781 20.5677 14.1719 20.3333 14.1719 20.0625C14.1719 19.7812 14.0781 19.5469 13.8906 19.3594C13.7031 19.1615 13.4635 19.0625 13.1719 19.0625H7.39062C7.09896 19.0625 6.85938 19.1615 6.67188 19.3594C6.48438 19.5469 6.39062 19.7812 6.39062 20.0625C6.39062 20.3333 6.48438 20.5677 6.67188 20.7656C6.85938 20.9531 7.09896 21.0469 7.39062 21.0469ZM0.359375 29.5781V5.875C0.359375 4.25 0.760417 3.02604 1.5625 2.20312C2.375 1.38021 3.58854 0.96875 5.20312 0.96875H21.7969C23.4115 0.96875 24.6198 1.38021 25.4219 2.20312C26.2344 3.02604 26.6406 4.25 26.6406 5.875V29.5781C26.6406 31.2135 26.2344 32.4375 25.4219 33.25C24.6198 34.0625 23.4115 34.4688 21.7969 34.4688H5.20312C3.58854 34.4688 2.375 34.0625 1.5625 33.25C0.760417 32.4375 0.359375 31.2135 0.359375 29.5781Z" fill="#E0E0E0"/>
</svg>
