<svg width="32" height="33" viewBox="0 0 32 33" fill="none" xmlns="http://www.w3.org/2000/svg">
<path d="M7.82812 18.4062H15.9844C16.2969 18.4062 16.5573 18.3021 16.7656 18.0938C16.974 17.8854 17.0781 17.625 17.0781 17.3125V6.78125C17.0781 6.47917 16.974 6.22396 16.7656 6.01562C16.5573 5.80729 16.2969 5.70312 15.9844 5.70312C15.6823 5.70312 15.4271 5.80729 15.2188 6.01562C15.0104 6.22396 14.9062 6.47917 14.9062 6.78125V16.2344H7.82812C7.51562 16.2344 7.25521 16.3385 7.04688 16.5469C6.83854 16.7552 6.73438 17.0104 6.73438 17.3125C6.73438 17.625 6.83854 17.8854 7.04688 18.0938C7.25521 18.3021 7.51562 18.4062 7.82812 18.4062ZM16 32.6562C13.8229 32.6562 11.7708 32.2396 9.84375 31.4062C7.92708 30.5729 6.23438 29.4219 4.76562 27.9531C3.29688 26.4844 2.14583 24.7917 1.3125 22.875C0.479167 20.9479 0.0625 18.8958 0.0625 16.7188C0.0625 14.5417 0.479167 12.4948 1.3125 10.5781C2.14583 8.65104 3.29167 6.95312 4.75 5.48438C6.21875 4.01562 7.91146 2.86458 9.82812 2.03125C11.7552 1.19792 13.8073 0.78125 15.9844 0.78125C18.1615 0.78125 20.2135 1.19792 22.1406 2.03125C24.0677 2.86458 25.7656 4.01562 27.2344 5.48438C28.7031 6.95312 29.8542 8.65104 30.6875 10.5781C31.5208 12.4948 31.9375 14.5417 31.9375 16.7188C31.9375 18.8958 31.5208 20.9479 30.6875 22.875C29.8542 24.7917 28.7031 26.4844 27.2344 27.9531C25.7656 29.4219 24.0677 30.5729 22.1406 31.4062C20.224 32.2396 18.1771 32.6562 16 32.6562Z" fill="#E0E0E0"/>
</svg>
