<svg width="18" height="17" viewBox="0 0 18 17" fill="none" xmlns="http://www.w3.org/2000/svg">
<path d="M9 16.5078C4.53125 16.5078 0.851562 12.8281 0.851562 8.35938C0.851562 3.89844 4.53125 0.210938 8.99219 0.210938C13.4609 0.210938 17.1484 3.89844 17.1484 8.35938C17.1484 12.8281 13.4688 16.5078 9 16.5078ZM8.13281 12.2422C8.44531 12.2422 8.71875 12.0859 8.90625 11.8047L12.5547 6.17188C12.6719 5.99219 12.7656 5.78125 12.7656 5.59375C12.7656 5.15625 12.375 4.85156 11.9531 4.85156C11.6797 4.85156 11.4453 5.00781 11.2578 5.29688L8.10938 10.3281L6.66406 8.51562C6.46094 8.26562 6.25781 8.16406 6 8.16406C5.5625 8.16406 5.21875 8.51562 5.21875 8.95312C5.21875 9.16406 5.28906 9.35156 5.44531 9.54688L7.32812 11.8125C7.5625 12.1016 7.8125 12.2422 8.13281 12.2422Z" fill="#1B4D00"/>
</svg>
