<svg width="27" height="20" viewBox="0 0 27 20" fill="none" xmlns="http://www.w3.org/2000/svg">
<path d="M17.0645 13.9697C16.707 14.292 16.4316 14.6816 16.2383 15.1387C16.0449 15.5898 15.9482 16.0762 15.9482 16.5977C15.9482 16.7559 15.96 16.9111 15.9834 17.0635H10.5518C10.5752 16.9111 10.5869 16.7588 10.5869 16.6064C10.5869 16.085 10.4873 15.5957 10.2881 15.1387C10.0947 14.6816 9.8252 14.2803 9.47949 13.9346C9.13379 13.5889 8.73242 13.3193 8.27539 13.126C7.81836 12.9268 7.33203 12.8271 6.81641 12.8271C6.28906 12.8271 5.79688 12.9268 5.33984 13.126C4.88281 13.3193 4.48145 13.5889 4.13574 13.9346C3.79004 14.2803 3.51758 14.6816 3.31836 15.1387C3.125 15.5957 3.02832 16.085 3.02832 16.6064C3.02832 16.7646 3.04004 16.9141 3.06348 17.0547H2.53613C1.99707 17.0547 1.54297 16.9521 1.17383 16.7471C0.810547 16.5479 0.532227 16.2549 0.338867 15.8682C0.151367 15.4814 0.0576172 15.0156 0.0576172 14.4707V2.85156C0.0576172 2.00781 0.280273 1.36328 0.725586 0.917969C1.1709 0.472656 1.81543 0.25 2.65918 0.25H14.4629C15.3125 0.25 15.957 0.475586 16.3965 0.926758C16.8418 1.37207 17.0645 2.01367 17.0645 2.85156V13.9697ZM18.3037 5.11035H20.6504C21.1133 5.11035 21.5088 5.1748 21.8369 5.30371C22.165 5.42676 22.4697 5.64062 22.751 5.94531L25.7832 9.37305C26.041 9.66602 26.2139 9.94727 26.3018 10.2168C26.3955 10.4805 26.4424 10.8438 26.4424 11.3066V14.4707C26.4424 15.291 26.2314 15.9268 25.8096 16.3779C25.3877 16.835 24.7695 17.0635 23.9551 17.0635H23.4717C23.4951 16.9053 23.5068 16.75 23.5068 16.5977C23.5068 16.0762 23.4043 15.5869 23.1992 15.1299C23 14.6729 22.7246 14.2715 22.373 13.9258C22.0273 13.5801 21.623 13.3105 21.1602 13.1172C20.7031 12.918 20.2139 12.8184 19.6924 12.8184C19.4404 12.8184 19.1973 12.8477 18.9629 12.9062C18.7285 12.9648 18.5088 13.0469 18.3037 13.1523V5.11035ZM20.7822 10.9023H24.5264C24.5146 10.8027 24.4854 10.7119 24.4385 10.6299C24.3916 10.5479 24.333 10.4688 24.2627 10.3926L21.6523 7.45703C21.4883 7.26953 21.3301 7.14941 21.1777 7.09668C21.0312 7.03809 20.8555 7.00879 20.6504 7.00879H19.9297V10.0586C19.9297 10.3164 20.0059 10.5215 20.1582 10.6738C20.3164 10.8262 20.5244 10.9023 20.7822 10.9023ZM6.81641 19.3047C6.3125 19.3047 5.85547 19.1816 5.44531 18.9355C5.04102 18.6953 4.71582 18.3701 4.46973 17.96C4.22949 17.5557 4.10938 17.1045 4.10938 16.6064C4.10938 16.1084 4.22949 15.6543 4.46973 15.2441C4.71582 14.834 5.04102 14.5088 5.44531 14.2686C5.85547 14.0283 6.3125 13.9082 6.81641 13.9082C7.30859 13.9082 7.75977 14.0283 8.16992 14.2686C8.58008 14.5088 8.90527 14.834 9.14551 15.2441C9.3916 15.6543 9.51465 16.1084 9.51465 16.6064C9.51465 17.0986 9.3916 17.5498 9.14551 17.96C8.90527 18.3701 8.58008 18.6953 8.16992 18.9355C7.76562 19.1816 7.31445 19.3047 6.81641 19.3047ZM19.7188 19.3047C19.2266 19.3047 18.7754 19.1816 18.3652 18.9355C17.9551 18.6953 17.627 18.3701 17.3809 17.96C17.1406 17.5498 17.0205 17.0957 17.0205 16.5977C17.0205 16.0996 17.1406 15.6455 17.3809 15.2354C17.627 14.8252 17.9551 14.5 18.3652 14.2598C18.7754 14.0195 19.2266 13.8994 19.7188 13.8994C20.2227 13.8994 20.6768 14.0195 21.0811 14.2598C21.4854 14.5 21.8105 14.8252 22.0566 15.2354C22.3027 15.6455 22.4258 16.0996 22.4258 16.5977C22.4258 17.1016 22.3027 17.5586 22.0566 17.9688C21.8164 18.3789 21.4912 18.7041 21.0811 18.9443C20.6768 19.1846 20.2227 19.3047 19.7188 19.3047Z" fill="#007AFF"/>
</svg>
