<svg width="17" height="18" viewBox="0 0 17 18" fill="none" xmlns="http://www.w3.org/2000/svg">
<path d="M0.398438 8.78906C0.398438 7.54427 0.601562 6.41146 1.00781 5.39062C1.41927 4.36458 2 3.48438 2.75 2.75C3.5 2.01042 4.38802 1.4401 5.41406 1.03906C6.44531 0.638021 7.58073 0.4375 8.82031 0.4375C9.9974 0.4375 11.0755 0.617188 12.0547 0.976562C13.0391 1.33073 13.888 1.83854 14.6016 2.5C15.3151 3.15625 15.8672 3.94531 16.2578 4.86719C16.6484 5.78385 16.8438 6.80469 16.8438 7.92969C16.8438 8.94531 16.6901 9.83594 16.3828 10.6016C16.0755 11.3672 15.6354 11.9635 15.0625 12.3906C14.4948 12.8125 13.8151 13.0234 13.0234 13.0234C12.3932 13.0234 11.8594 12.8802 11.4219 12.5938C10.9896 12.3073 10.7135 11.9089 10.5938 11.3984H10.4609C10.2422 11.9193 9.92708 12.3229 9.51562 12.6094C9.10417 12.8906 8.60417 13.0312 8.01562 13.0312C7.32812 13.0312 6.72396 12.8542 6.20312 12.5C5.6875 12.1458 5.28385 11.651 4.99219 11.0156C4.70052 10.3802 4.55469 9.64323 4.55469 8.80469C4.55469 7.99219 4.69531 7.27604 4.97656 6.65625C5.26302 6.03646 5.65625 5.55469 6.15625 5.21094C6.65625 4.86719 7.23698 4.69531 7.89844 4.69531C8.46094 4.69531 8.95573 4.82552 9.38281 5.08594C9.8151 5.34635 10.1302 5.71094 10.3281 6.17969H10.4688V5.67969C10.4688 5.36719 10.5495 5.125 10.7109 4.95312C10.8776 4.78125 11.112 4.69531 11.4141 4.69531C11.7214 4.69531 11.9583 4.78125 12.125 4.95312C12.2917 5.125 12.375 5.36719 12.375 5.67969V10.1953C12.375 10.5911 12.4688 10.8984 12.6562 11.1172C12.8438 11.3359 13.1094 11.4453 13.4531 11.4453C13.7969 11.4453 14.0938 11.3073 14.3438 11.0312C14.599 10.75 14.7943 10.362 14.9297 9.86719C15.0703 9.36719 15.1406 8.78385 15.1406 8.11719C15.1406 7.15885 14.9818 6.30469 14.6641 5.55469C14.3464 4.79948 13.901 4.15885 13.3281 3.63281C12.7552 3.10677 12.0833 2.70833 11.3125 2.4375C10.5469 2.16146 9.71354 2.02344 8.8125 2.02344C7.82292 2.02344 6.92188 2.1875 6.10938 2.51562C5.29688 2.84375 4.59635 3.3099 4.00781 3.91406C3.41927 4.51823 2.96615 5.23698 2.64844 6.07031C2.33073 6.89844 2.17188 7.81771 2.17188 8.82812C2.17188 9.86458 2.33854 10.7943 2.67188 11.6172C3.00521 12.4401 3.47917 13.1406 4.09375 13.7188C4.71354 14.2969 5.45573 14.737 6.32031 15.0391C7.1849 15.3464 8.14583 15.5 9.20312 15.5C9.61458 15.5 9.97917 15.4766 10.2969 15.4297C10.6146 15.388 10.9349 15.3333 11.2578 15.2656C11.3464 15.2552 11.4271 15.2448 11.5 15.2344C11.5729 15.2292 11.6458 15.2266 11.7188 15.2266C11.9583 15.2266 12.1432 15.2917 12.2734 15.4219C12.4036 15.5521 12.4688 15.7188 12.4688 15.9219C12.4688 16.1094 12.4167 16.2708 12.3125 16.4062C12.2135 16.5469 12.0417 16.6589 11.7969 16.7422C11.4896 16.8516 11.0938 16.9375 10.6094 17C10.1302 17.0625 9.57292 17.0938 8.9375 17.0938C7.68229 17.0938 6.53385 16.901 5.49219 16.5156C4.45052 16.1302 3.54948 15.5755 2.78906 14.8516C2.02865 14.1276 1.4401 13.2552 1.02344 12.2344C0.606771 11.2083 0.398438 10.0599 0.398438 8.78906ZM8.49219 11.3203C8.86719 11.3203 9.19271 11.2188 9.46875 11.0156C9.74479 10.8125 9.95833 10.526 10.1094 10.1562C10.2604 9.78646 10.3359 9.34635 10.3359 8.83594C10.3359 8.08073 10.1693 7.48438 9.83594 7.04688C9.50781 6.60938 9.0625 6.39062 8.5 6.39062C8.13021 6.39062 7.8099 6.49219 7.53906 6.69531C7.26823 6.89323 7.05729 7.17708 6.90625 7.54688C6.76042 7.91146 6.6875 8.34635 6.6875 8.85156C6.6875 9.36198 6.76042 9.80208 6.90625 10.1719C7.05208 10.5365 7.26042 10.8203 7.53125 11.0234C7.80208 11.2214 8.1224 11.3203 8.49219 11.3203Z" fill="#D7F31E"/>
</svg>
