<svg width="32" height="33" viewBox="0 0 32 33" fill="none" xmlns="http://www.w3.org/2000/svg">
<path d="M16 32.6719C13.8229 32.6719 11.7708 32.2552 9.84375 31.4219C7.92708 30.5885 6.23438 29.4375 4.76562 27.9688C3.29688 26.5 2.14583 24.8073 1.3125 22.8906C0.479167 20.9635 0.0625 18.9115 0.0625 16.7344C0.0625 14.5573 0.479167 12.5104 1.3125 10.5938C2.14583 8.66667 3.29167 6.96875 4.75 5.5C6.21875 4.03125 7.91146 2.88021 9.82812 2.04688C11.7552 1.21354 13.8073 0.796875 15.9844 0.796875C18.1615 0.796875 20.2135 1.21354 22.1406 2.04688C24.0677 2.88021 25.7656 4.03125 27.2344 5.5C28.7031 6.96875 29.8542 8.66667 30.6875 10.5938C31.5208 12.5104 31.9375 14.5573 31.9375 16.7344C31.9375 18.9115 31.5208 20.9635 30.6875 22.8906C29.8542 24.8073 28.7031 26.5 27.2344 27.9688C25.7656 29.4375 24.0677 30.5885 22.1406 31.4219C20.224 32.2552 18.1771 32.6719 16 32.6719ZM13.3125 22.1875H22.0625C22.3125 22.1875 22.5104 22.1146 22.6562 21.9688C22.8125 21.8125 22.8906 21.599 22.8906 21.3281C22.8906 21.0781 22.8125 20.8802 22.6562 20.7344C22.5104 20.5781 22.3125 20.5 22.0625 20.5H13.3281C13.0885 20.5 12.8906 20.4323 12.7344 20.2969C12.5885 20.151 12.5 19.9531 12.4688 19.7031L12.3906 19.0938H22.4375C23.0417 19.0938 23.5 18.9271 23.8125 18.5938C24.1354 18.2604 24.3385 17.7969 24.4219 17.2031L25.0781 12.8281C25.0885 12.7865 25.0938 12.7344 25.0938 12.6719C25.1042 12.6094 25.1094 12.5677 25.1094 12.5469C25.1094 12.3385 25.0417 12.1771 24.9062 12.0625C24.7812 11.9375 24.6042 11.875 24.375 11.875H11.3281L11.1875 10.7812C11.1458 10.4375 10.9948 10.1615 10.7344 9.95312C10.474 9.73438 10.1615 9.625 9.79688 9.625H7.04688C6.79688 9.625 6.59375 9.70833 6.4375 9.875C6.28125 10.0312 6.20312 10.2344 6.20312 10.4844C6.20312 10.7344 6.28125 10.9427 6.4375 11.1094C6.59375 11.2656 6.79688 11.3438 7.04688 11.3438H9.54688L10.8125 20.2344C10.9167 20.8802 11.1719 21.3698 11.5781 21.7031C11.9948 22.026 12.5729 22.1875 13.3125 22.1875ZM13.5625 26.1406C13.9583 26.1406 14.2969 26.0052 14.5781 25.7344C14.8698 25.4531 15.0156 25.1094 15.0156 24.7031C15.0156 24.2969 14.8698 23.9531 14.5781 23.6719C14.2969 23.3906 13.9583 23.25 13.5625 23.25C13.1562 23.25 12.8125 23.3906 12.5312 23.6719C12.2604 23.9531 12.125 24.2969 12.125 24.7031C12.125 25.1094 12.2604 25.4531 12.5312 25.7344C12.8125 26.0052 13.1562 26.1406 13.5625 26.1406ZM20.75 26.1406C21.1667 26.1406 21.5104 26.0052 21.7812 25.7344C22.0625 25.4531 22.2031 25.1094 22.2031 24.7031C22.2031 24.2969 22.0625 23.9531 21.7812 23.6719C21.5104 23.3906 21.1667 23.25 20.75 23.25C20.3542 23.25 20.0104 23.3906 19.7188 23.6719C19.4375 23.9531 19.2969 24.2969 19.2969 24.7031C19.2969 25.1094 19.4375 25.4531 19.7188 25.7344C20.0104 26.0052 20.3542 26.1406 20.75 26.1406Z" fill="#0053F5"/>
</svg>
