<svg width="17" height="15" viewBox="0 0 17 15" fill="none" xmlns="http://www.w3.org/2000/svg">
<path d="M-0.00585938 0.581543C-0.00585938 0.435059 0.0478516 0.308105 0.155273 0.200684C0.262695 0.0883789 0.389648 0.0322266 0.536133 0.0322266H3.10693C3.48291 0.0322266 3.73682 0.103027 3.86865 0.244629C4.00537 0.38623 4.09326 0.598633 4.13232 0.881836L4.27881 1.81201H16.2319C16.4321 1.81201 16.5933 1.86816 16.7153 1.98047C16.8374 2.08789 16.8984 2.22949 16.8984 2.40527C16.8984 2.43945 16.896 2.4834 16.8911 2.53711C16.8862 2.58594 16.8789 2.63477 16.8691 2.68359L16.2832 6.55811C16.2051 7.08545 16.0244 7.50293 15.7412 7.81055C15.458 8.11328 15.0479 8.26465 14.5107 8.26465H5.21631L5.3335 9.03369C5.36279 9.2583 5.44092 9.43896 5.56787 9.57568C5.69971 9.70752 5.86816 9.77344 6.07324 9.77344H14.4961C14.6377 9.77344 14.7622 9.82715 14.8696 9.93457C14.9771 10.0371 15.0308 10.1665 15.0308 10.3228C15.0308 10.479 14.9771 10.6108 14.8696 10.7183C14.7622 10.8208 14.6377 10.8721 14.4961 10.8721H5.94873C5.4165 10.8721 5.00879 10.7207 4.72559 10.418C4.44238 10.1152 4.26172 9.70264 4.18359 9.18018L3.01172 1.13818H0.536133C0.389648 1.13818 0.262695 1.08447 0.155273 0.977051C0.0478516 0.864746 -0.00585938 0.73291 -0.00585938 0.581543ZM5.3335 13.2451C5.3335 13.0254 5.38721 12.8252 5.49463 12.6445C5.60205 12.4639 5.74365 12.3198 5.91943 12.2124C6.1001 12.1099 6.30273 12.0586 6.52734 12.0586C6.85449 12.0586 7.13281 12.1733 7.3623 12.4028C7.59668 12.6323 7.71387 12.9131 7.71387 13.2451C7.71387 13.5771 7.59668 13.8579 7.3623 14.0874C7.13281 14.3169 6.85449 14.4316 6.52734 14.4316C6.30273 14.4316 6.1001 14.3779 5.91943 14.2705C5.74365 14.168 5.60205 14.0264 5.49463 13.8457C5.38721 13.665 5.3335 13.4648 5.3335 13.2451ZM12.1816 13.2451C12.1816 13.0254 12.2354 12.8252 12.3428 12.6445C12.4502 12.4639 12.5942 12.3198 12.7749 12.2124C12.9556 12.1099 13.1558 12.0586 13.3755 12.0586C13.7075 12.0586 13.9883 12.1733 14.2178 12.4028C14.4521 12.6323 14.5693 12.9131 14.5693 13.2451C14.5693 13.5771 14.4521 13.8579 14.2178 14.0874C13.9883 14.3169 13.7075 14.4316 13.3755 14.4316C13.0483 14.4316 12.7676 14.3169 12.5332 14.0874C12.2988 13.8579 12.1816 13.5771 12.1816 13.2451Z" fill="#D7F31E"/>
</svg>
