<svg width="18" height="17" viewBox="0 0 18 17" fill="none" xmlns="http://www.w3.org/2000/svg">
<path d="M9 16.5078C4.53125 16.5078 0.851562 12.8281 0.851562 8.35938C0.851562 3.89844 4.53125 0.210938 8.99219 0.210938C13.4609 0.210938 17.1484 3.89844 17.1484 8.35938C17.1484 12.8281 13.4688 16.5078 9 16.5078ZM9 9.63281C9.48438 9.63281 9.77344 9.35938 9.78906 8.85156L9.91406 5.16406C9.92969 4.64062 9.54688 4.26562 8.99219 4.26562C8.4375 4.26562 8.0625 4.63281 8.08594 5.15625L8.20312 8.85156C8.21875 9.35938 8.50781 9.63281 9 9.63281ZM9 12.3828C9.57031 12.3828 10.0234 12 10.0234 11.4453C10.0234 10.8984 9.57031 10.5078 9 10.5078C8.42969 10.5078 7.98438 10.8984 7.98438 11.4453C7.98438 11.9922 8.4375 12.3828 9 12.3828Z" fill="#00314D"/>
</svg>
